<svg width="721" height="475" viewBox="0 0 721 475" fill="none" xmlns="http://www.w3.org/2000/svg">
<rect x="262" width="197" height="197" fill="#AC161D"/>
<path d="M310.635 108L318.696 89.7391H323.783L331.87 108H326.496L320.183 92.2696H322.217L315.904 108H310.635ZM315.043 104.452L316.374 100.643H325.296L326.626 104.452H315.043ZM342.183 108.365C340.74 108.365 339.401 108.139 338.166 107.687C336.949 107.217 335.888 106.557 334.983 105.704C334.097 104.852 333.401 103.852 332.897 102.704C332.392 101.539 332.14 100.261 332.14 98.8696C332.14 97.4783 332.392 96.2087 332.897 95.0609C333.401 93.8957 334.097 92.887 334.983 92.0348C335.888 91.1826 336.949 90.5304 338.166 90.0783C339.401 89.6087 340.74 89.3739 342.183 89.3739C343.87 89.3739 345.375 89.6696 346.697 90.2609C348.036 90.8522 349.149 91.7043 350.036 92.8174L346.749 95.7913C346.157 95.0957 345.505 94.5652 344.792 94.2C344.097 93.8348 343.314 93.6522 342.444 93.6522C341.697 93.6522 341.01 93.7739 340.383 94.0174C339.757 94.2609 339.218 94.6174 338.766 95.087C338.331 95.5391 337.983 96.087 337.723 96.7304C337.479 97.3739 337.357 98.087 337.357 98.8696C337.357 99.6522 337.479 100.365 337.723 101.009C337.983 101.652 338.331 102.209 338.766 102.678C339.218 103.13 339.757 103.478 340.383 103.722C341.01 103.965 341.697 104.087 342.444 104.087C343.314 104.087 344.097 103.904 344.792 103.539C345.505 103.174 346.157 102.643 346.749 101.948L350.036 104.922C349.149 106.017 348.036 106.87 346.697 107.478C345.375 108.07 343.87 108.365 342.183 108.365ZM354.315 108V91.5913L356.533 93.7304H350.924V89.7391H359.48V108H354.315ZM370.679 108.365C368.974 108.365 367.487 108.026 366.218 107.348C364.966 106.67 363.983 105.661 363.27 104.322C362.574 102.983 362.227 101.33 362.227 99.3652C362.227 97.2435 362.635 95.4435 363.453 93.9652C364.287 92.4696 365.427 91.3304 366.87 90.5478C368.331 89.7652 370.018 89.3739 371.931 89.3739C372.957 89.3739 373.94 89.4957 374.879 89.7391C375.835 89.9652 376.644 90.287 377.305 90.7043L375.427 94.4087C374.905 94.0435 374.357 93.8 373.783 93.6783C373.227 93.5391 372.653 93.4696 372.061 93.4696C370.653 93.4696 369.522 93.8957 368.67 94.7478C367.835 95.6 367.418 96.8435 367.418 98.4783C367.418 98.7739 367.418 99.087 367.418 99.4174C367.435 99.7304 367.47 100.052 367.522 100.383L366.218 99.313C366.566 98.6696 366.983 98.1304 367.47 97.6957C367.974 97.2609 368.566 96.9304 369.244 96.7043C369.94 96.4783 370.714 96.3652 371.566 96.3652C372.714 96.3652 373.757 96.6087 374.696 97.0957C375.653 97.5652 376.418 98.2348 376.992 99.1043C377.566 99.9565 377.853 100.965 377.853 102.13C377.853 103.4 377.531 104.504 376.887 105.443C376.244 106.365 375.383 107.087 374.305 107.609C373.227 108.113 372.018 108.365 370.679 108.365ZM370.366 104.687C370.853 104.687 371.279 104.591 371.644 104.4C372.027 104.209 372.322 103.939 372.531 103.591C372.74 103.243 372.844 102.835 372.844 102.365C372.844 101.67 372.609 101.113 372.14 100.696C371.687 100.278 371.087 100.07 370.34 100.07C369.835 100.07 369.392 100.165 369.009 100.357C368.644 100.548 368.348 100.817 368.122 101.165C367.914 101.513 367.809 101.922 367.809 102.391C367.809 102.843 367.914 103.243 368.122 103.591C368.331 103.922 368.627 104.191 369.009 104.4C369.392 104.591 369.844 104.687 370.366 104.687ZM381.829 108V91.5913L384.046 93.7304H378.437V89.7391H386.994V108H381.829ZM390.679 108V89.7391H399.314C401.332 89.7391 403.105 90.113 404.636 90.8609C406.166 91.6087 407.358 92.6609 408.21 94.0174C409.079 95.3739 409.514 96.9913 409.514 98.8696C409.514 100.73 409.079 102.348 408.21 103.722C407.358 105.078 406.166 106.13 404.636 106.878C403.105 107.626 401.332 108 399.314 108H390.679ZM395.845 103.878H399.105C400.149 103.878 401.053 103.687 401.818 103.304C402.601 102.904 403.21 102.33 403.645 101.583C404.079 100.817 404.297 99.913 404.297 98.8696C404.297 97.8087 404.079 96.9043 403.645 96.1565C403.21 95.4087 402.601 94.8435 401.818 94.4609C401.053 94.0609 400.149 93.8609 399.105 93.8609H395.845V103.878Z" fill="white"/>
<rect x="262" y="278" width="197" height="197" fill="#D9D9D9"/>
<rect y="278" width="197" height="197" fill="#5D5D5D"/>
<rect width="197" height="197" fill="black"/>
<path d="M57.9478 108.365C56.3826 108.365 54.9913 107.991 53.7739 107.243C52.5739 106.496 51.6261 105.417 50.9304 104.009C50.2348 102.6 49.887 100.887 49.887 98.8696C49.887 96.8522 50.2348 95.1391 50.9304 93.7304C51.6261 92.3217 52.5739 91.2435 53.7739 90.4957C54.9913 89.7478 56.3826 89.3739 57.9478 89.3739C59.4957 89.3739 60.8696 89.7478 62.0696 90.4957C63.287 91.2435 64.2435 92.3217 64.9391 93.7304C65.6348 95.1391 65.9826 96.8522 65.9826 98.8696C65.9826 100.887 65.6348 102.6 64.9391 104.009C64.2435 105.417 63.287 106.496 62.0696 107.243C60.8696 107.991 59.4957 108.365 57.9478 108.365ZM57.9478 104.139C58.5043 104.139 58.9913 103.965 59.4087 103.617C59.8435 103.27 60.1826 102.713 60.4261 101.948C60.6696 101.165 60.7913 100.139 60.7913 98.8696C60.7913 97.5826 60.6696 96.5565 60.4261 95.7913C60.1826 95.0261 59.8435 94.4696 59.4087 94.1217C58.9913 93.7739 58.5043 93.6 57.9478 93.6C57.3913 93.6 56.8957 93.7739 56.4609 94.1217C56.0435 94.4696 55.7043 95.0261 55.4435 95.7913C55.2 96.5565 55.0783 97.5826 55.0783 98.8696C55.0783 100.139 55.2 101.165 55.4435 101.948C55.7043 102.713 56.0435 103.27 56.4609 103.617C56.8957 103.965 57.3913 104.139 57.9478 104.139ZM75.8062 108.365C74.241 108.365 72.8497 107.991 71.6323 107.243C70.4323 106.496 69.4844 105.417 68.7888 104.009C68.0931 102.6 67.7453 100.887 67.7453 98.8696C67.7453 96.8522 68.0931 95.1391 68.7888 93.7304C69.4844 92.3217 70.4323 91.2435 71.6323 90.4957C72.8497 89.7478 74.241 89.3739 75.8062 89.3739C77.354 89.3739 78.7279 89.7478 79.9279 90.4957C81.1453 91.2435 82.1018 92.3217 82.7975 93.7304C83.4931 95.1391 83.841 96.8522 83.841 98.8696C83.841 100.887 83.4931 102.6 82.7975 104.009C82.1018 105.417 81.1453 106.496 79.9279 107.243C78.7279 107.991 77.354 108.365 75.8062 108.365ZM75.8062 104.139C76.3627 104.139 76.8497 103.965 77.2671 103.617C77.7018 103.27 78.041 102.713 78.2844 101.948C78.5279 101.165 78.6497 100.139 78.6497 98.8696C78.6497 97.5826 78.5279 96.5565 78.2844 95.7913C78.041 95.0261 77.7018 94.4696 77.2671 94.1217C76.8497 93.7739 76.3627 93.6 75.8062 93.6C75.2497 93.6 74.754 93.7739 74.3192 94.1217C73.9018 94.4696 73.5627 95.0261 73.3018 95.7913C73.0584 96.5565 72.9366 97.5826 72.9366 98.8696C72.9366 100.139 73.0584 101.165 73.3018 101.948C73.5627 102.713 73.9018 103.27 74.3192 103.617C74.754 103.965 75.2497 104.139 75.8062 104.139ZM93.6645 108.365C92.0993 108.365 90.708 107.991 89.4906 107.243C88.2906 106.496 87.3428 105.417 86.6471 104.009C85.9515 102.6 85.6037 100.887 85.6037 98.8696C85.6037 96.8522 85.9515 95.1391 86.6471 93.7304C87.3428 92.3217 88.2906 91.2435 89.4906 90.4957C90.708 89.7478 92.0993 89.3739 93.6645 89.3739C95.2124 89.3739 96.5863 89.7478 97.7863 90.4957C99.0037 91.2435 99.9602 92.3217 100.656 93.7304C101.351 95.1391 101.699 96.8522 101.699 98.8696C101.699 100.887 101.351 102.6 100.656 104.009C99.9602 105.417 99.0037 106.496 97.7863 107.243C96.5863 107.991 95.2124 108.365 93.6645 108.365ZM93.6645 104.139C94.2211 104.139 94.708 103.965 95.1254 103.617C95.5602 103.27 95.8993 102.713 96.1428 101.948C96.3863 101.165 96.508 100.139 96.508 98.8696C96.508 97.5826 96.3863 96.5565 96.1428 95.7913C95.8993 95.0261 95.5602 94.4696 95.1254 94.1217C94.708 93.7739 94.2211 93.6 93.6645 93.6C93.108 93.6 92.6124 93.7739 92.1776 94.1217C91.7602 94.4696 91.4211 95.0261 91.1602 95.7913C90.9167 96.5565 90.795 97.5826 90.795 98.8696C90.795 100.139 90.9167 101.165 91.1602 101.948C91.4211 102.713 91.7602 103.27 92.1776 103.617C92.6124 103.965 93.108 104.139 93.6645 104.139ZM111.523 108.365C109.958 108.365 108.566 107.991 107.349 107.243C106.149 106.496 105.201 105.417 104.506 104.009C103.81 102.6 103.462 100.887 103.462 98.8696C103.462 96.8522 103.81 95.1391 104.506 93.7304C105.201 92.3217 106.149 91.2435 107.349 90.4957C108.566 89.7478 109.958 89.3739 111.523 89.3739C113.071 89.3739 114.445 89.7478 115.645 90.4957C116.862 91.2435 117.819 92.3217 118.514 93.7304C119.21 95.1391 119.558 96.8522 119.558 98.8696C119.558 100.887 119.21 102.6 118.514 104.009C117.819 105.417 116.862 106.496 115.645 107.243C114.445 107.991 113.071 108.365 111.523 108.365ZM111.523 104.139C112.079 104.139 112.566 103.965 112.984 103.617C113.419 103.27 113.758 102.713 114.001 101.948C114.245 101.165 114.366 100.139 114.366 98.8696C114.366 97.5826 114.245 96.5565 114.001 95.7913C113.758 95.0261 113.419 94.4696 112.984 94.1217C112.566 93.7739 112.079 93.6 111.523 93.6C110.966 93.6 110.471 93.7739 110.036 94.1217C109.619 94.4696 109.279 95.0261 109.019 95.7913C108.775 96.5565 108.653 97.5826 108.653 98.8696C108.653 100.139 108.775 101.165 109.019 101.948C109.279 102.713 109.619 103.27 110.036 103.617C110.471 103.965 110.966 104.139 111.523 104.139ZM129.381 108.365C127.816 108.365 126.425 107.991 125.207 107.243C124.007 106.496 123.06 105.417 122.364 104.009C121.668 102.6 121.32 100.887 121.32 98.8696C121.32 96.8522 121.668 95.1391 122.364 93.7304C123.06 92.3217 124.007 91.2435 125.207 90.4957C126.425 89.7478 127.816 89.3739 129.381 89.3739C130.929 89.3739 132.303 89.7478 133.503 90.4957C134.72 91.2435 135.677 92.3217 136.373 93.7304C137.068 95.1391 137.416 96.8522 137.416 98.8696C137.416 100.887 137.068 102.6 136.373 104.009C135.677 105.417 134.72 106.496 133.503 107.243C132.303 107.991 130.929 108.365 129.381 108.365ZM129.381 104.139C129.938 104.139 130.425 103.965 130.842 103.617C131.277 103.27 131.616 102.713 131.86 101.948C132.103 101.165 132.225 100.139 132.225 98.8696C132.225 97.5826 132.103 96.5565 131.86 95.7913C131.616 95.0261 131.277 94.4696 130.842 94.1217C130.425 93.7739 129.938 93.6 129.381 93.6C128.825 93.6 128.329 93.7739 127.894 94.1217C127.477 94.4696 127.138 95.0261 126.877 95.7913C126.633 96.5565 126.512 97.5826 126.512 98.8696C126.512 100.139 126.633 101.165 126.877 101.948C127.138 102.713 127.477 103.27 127.894 103.617C128.329 103.965 128.825 104.139 129.381 104.139ZM147.24 108.365C145.674 108.365 144.283 107.991 143.066 107.243C141.866 106.496 140.918 105.417 140.222 104.009C139.527 102.6 139.179 100.887 139.179 98.8696C139.179 96.8522 139.527 95.1391 140.222 93.7304C140.918 92.3217 141.866 91.2435 143.066 90.4957C144.283 89.7478 145.674 89.3739 147.24 89.3739C148.787 89.3739 150.161 89.7478 151.361 90.4957C152.579 91.2435 153.535 92.3217 154.231 93.7304C154.927 95.1391 155.274 96.8522 155.274 98.8696C155.274 100.887 154.927 102.6 154.231 104.009C153.535 105.417 152.579 106.496 151.361 107.243C150.161 107.991 148.787 108.365 147.24 108.365ZM147.24 104.139C147.796 104.139 148.283 103.965 148.7 103.617C149.135 103.27 149.474 102.713 149.718 101.948C149.961 101.165 150.083 100.139 150.083 98.8696C150.083 97.5826 149.961 96.5565 149.718 95.7913C149.474 95.0261 149.135 94.4696 148.7 94.1217C148.283 93.7739 147.796 93.6 147.24 93.6C146.683 93.6 146.187 93.7739 145.753 94.1217C145.335 94.4696 144.996 95.0261 144.735 95.7913C144.492 96.5565 144.37 97.5826 144.37 98.8696C144.37 100.139 144.492 101.165 144.735 101.948C144.996 102.713 145.335 103.27 145.753 103.617C146.187 103.965 146.683 104.139 147.24 104.139Z" fill="white"/>
<rect x="524" width="197" height="197" fill="#FBCD07"/>
<path d="M573.626 97.7478H582.052V101.739H573.626V97.7478ZM573.991 108H568.826V89.7391H583.148V93.7304H573.991V108ZM585.564 108V89.7391H594.903C597.303 89.7391 599.094 90.1826 600.277 91.0696C601.459 91.9391 602.05 93.087 602.05 94.513C602.05 95.4522 601.798 96.2783 601.294 96.9913C600.807 97.687 600.111 98.2435 599.207 98.6609C598.32 99.0609 597.259 99.2609 596.024 99.2609L596.546 98.0087C597.833 98.0087 598.955 98.2087 599.911 98.6087C600.868 98.9913 601.607 99.5565 602.129 100.304C602.668 101.035 602.937 101.93 602.937 102.991C602.937 104.574 602.294 105.809 601.007 106.696C599.737 107.565 597.877 108 595.424 108H585.564ZM590.677 104.27H595.007C595.894 104.27 596.564 104.122 597.016 103.826C597.485 103.513 597.72 103.043 597.72 102.417C597.72 101.791 597.485 101.33 597.016 101.035C596.564 100.722 595.894 100.565 595.007 100.565H590.311V96.9913H594.224C595.094 96.9913 595.746 96.8435 596.181 96.5478C596.616 96.2522 596.833 95.8087 596.833 95.2174C596.833 94.6261 596.616 94.1913 596.181 93.913C595.746 93.6174 595.094 93.4696 594.224 93.4696H590.677V104.27ZM614.717 108.365C613.274 108.365 611.935 108.139 610.7 107.687C609.482 107.217 608.421 106.557 607.517 105.704C606.63 104.852 605.935 103.852 605.43 102.704C604.926 101.539 604.674 100.261 604.674 98.8696C604.674 97.4783 604.926 96.2087 605.43 95.0609C605.935 93.8957 606.63 92.887 607.517 92.0348C608.421 91.1826 609.482 90.5304 610.7 90.0783C611.935 89.6087 613.274 89.3739 614.717 89.3739C616.404 89.3739 617.908 89.6696 619.23 90.2609C620.569 90.8522 621.682 91.7043 622.569 92.8174L619.282 95.7913C618.691 95.0957 618.039 94.5652 617.326 94.2C616.63 93.8348 615.848 93.6522 614.978 93.6522C614.23 93.6522 613.543 93.7739 612.917 94.0174C612.291 94.2609 611.752 94.6174 611.3 95.087C610.865 95.5391 610.517 96.087 610.256 96.7304C610.013 97.3739 609.891 98.087 609.891 98.8696C609.891 99.6522 610.013 100.365 610.256 101.009C610.517 101.652 610.865 102.209 611.3 102.678C611.752 103.13 612.291 103.478 612.917 103.722C613.543 103.965 614.23 104.087 614.978 104.087C615.848 104.087 616.63 103.904 617.326 103.539C618.039 103.174 618.691 102.643 619.282 101.948L622.569 104.922C621.682 106.017 620.569 106.87 619.23 107.478C617.908 108.07 616.404 108.365 614.717 108.365ZM624.872 108V89.7391H633.507C635.524 89.7391 637.298 90.113 638.829 90.8609C640.359 91.6087 641.551 92.6609 642.403 94.0174C643.272 95.3739 643.707 96.9913 643.707 98.8696C643.707 100.73 643.272 102.348 642.403 103.722C641.551 105.078 640.359 106.13 638.829 106.878C637.298 107.626 635.524 108 633.507 108H624.872ZM630.038 103.878H633.298C634.342 103.878 635.246 103.687 636.011 103.304C636.794 102.904 637.403 102.33 637.838 101.583C638.272 100.817 638.49 99.913 638.49 98.8696C638.49 97.8087 638.272 96.9043 637.838 96.1565C637.403 95.4087 636.794 94.8435 636.011 94.4609C635.246 94.0609 634.342 93.8609 633.298 93.8609H630.038V103.878ZM653.546 108.365C651.981 108.365 650.59 107.991 649.372 107.243C648.172 106.496 647.225 105.417 646.529 104.009C645.833 102.6 645.485 100.887 645.485 98.8696C645.485 96.8522 645.833 95.1391 646.529 93.7304C647.225 92.3217 648.172 91.2435 649.372 90.4957C650.59 89.7478 651.981 89.3739 653.546 89.3739C655.094 89.3739 656.468 89.7478 657.668 90.4957C658.885 91.2435 659.842 92.3217 660.538 93.7304C661.233 95.1391 661.581 96.8522 661.581 98.8696C661.581 100.887 661.233 102.6 660.538 104.009C659.842 105.417 658.885 106.496 657.668 107.243C656.468 107.991 655.094 108.365 653.546 108.365ZM653.546 104.139C654.103 104.139 654.59 103.965 655.007 103.617C655.442 103.27 655.781 102.713 656.025 101.948C656.268 101.165 656.39 100.139 656.39 98.8696C656.39 97.5826 656.268 96.5565 656.025 95.7913C655.781 95.0261 655.442 94.4696 655.007 94.1217C654.59 93.7739 654.103 93.6 653.546 93.6C652.99 93.6 652.494 93.7739 652.059 94.1217C651.642 94.4696 651.303 95.0261 651.042 95.7913C650.799 96.5565 650.677 97.5826 650.677 98.8696C650.677 100.139 650.799 101.165 651.042 101.948C651.303 102.713 651.642 103.27 652.059 103.617C652.494 103.965 652.99 104.139 653.546 104.139ZM666.058 108L673.18 91.6435L674.562 93.8348H665.302L667.415 91.4609V96.6522H663.006V89.7391H678.136V92.9739L671.693 108H666.058Z" fill="white"/>
<rect x="524" y="278" width="197" height="197" fill="#DAB107"/>
<path d="M568.826 386V367.739H577.461C579.478 367.739 581.252 368.113 582.783 368.861C584.313 369.609 585.504 370.661 586.357 372.017C587.226 373.374 587.661 374.991 587.661 376.87C587.661 378.73 587.226 380.348 586.357 381.722C585.504 383.078 584.313 384.13 582.783 384.878C581.252 385.626 579.478 386 577.461 386H568.826ZM573.991 381.878H577.252C578.296 381.878 579.2 381.687 579.965 381.304C580.748 380.904 581.357 380.33 581.791 379.583C582.226 378.817 582.443 377.913 582.443 376.87C582.443 375.809 582.226 374.904 581.791 374.157C581.357 373.409 580.748 372.843 579.965 372.461C579.2 372.061 578.296 371.861 577.252 371.861H573.991V381.878ZM587.932 386L595.993 367.739H601.08L609.167 386H603.793L597.48 370.27H599.515L593.202 386H587.932ZM592.341 382.452L593.671 378.643H602.593L603.924 382.452H592.341ZM610.631 386V367.739H619.971C622.371 367.739 624.162 368.183 625.344 369.07C626.527 369.939 627.118 371.087 627.118 372.513C627.118 373.452 626.866 374.278 626.362 374.991C625.875 375.687 625.179 376.243 624.275 376.661C623.388 377.061 622.327 377.261 621.092 377.261L621.614 376.009C622.901 376.009 624.023 376.209 624.979 376.609C625.936 376.991 626.675 377.557 627.197 378.304C627.736 379.035 628.005 379.93 628.005 380.991C628.005 382.574 627.362 383.809 626.075 384.696C624.805 385.565 622.944 386 620.492 386H610.631ZM615.744 382.27H620.075C620.962 382.27 621.631 382.122 622.084 381.826C622.553 381.513 622.788 381.043 622.788 380.417C622.788 379.791 622.553 379.33 622.084 379.035C621.631 378.722 620.962 378.565 620.075 378.565H615.379V374.991H619.292C620.162 374.991 620.814 374.843 621.249 374.548C621.684 374.252 621.901 373.809 621.901 373.217C621.901 372.626 621.684 372.191 621.249 371.913C620.814 371.617 620.162 371.47 619.292 371.47H615.744V382.27ZM632.402 386V369.591L634.62 371.73H629.011V367.739H637.568V386H632.402ZM648.375 386.365C646.81 386.365 645.418 385.991 644.201 385.243C643.001 384.496 642.053 383.417 641.357 382.009C640.662 380.6 640.314 378.887 640.314 376.87C640.314 374.852 640.662 373.139 641.357 371.73C642.053 370.322 643.001 369.243 644.201 368.496C645.418 367.748 646.81 367.374 648.375 367.374C649.923 367.374 651.297 367.748 652.497 368.496C653.714 369.243 654.67 370.322 655.366 371.73C656.062 373.139 656.41 374.852 656.41 376.87C656.41 378.887 656.062 380.6 655.366 382.009C654.67 383.417 653.714 384.496 652.497 385.243C651.297 385.991 649.923 386.365 648.375 386.365ZM648.375 382.139C648.931 382.139 649.418 381.965 649.836 381.617C650.27 381.27 650.61 380.713 650.853 379.948C651.097 379.165 651.218 378.139 651.218 376.87C651.218 375.583 651.097 374.557 650.853 373.791C650.61 373.026 650.27 372.47 649.836 372.122C649.418 371.774 648.931 371.6 648.375 371.6C647.818 371.6 647.323 371.774 646.888 372.122C646.47 372.47 646.131 373.026 645.87 373.791C645.627 374.557 645.505 375.583 645.505 376.87C645.505 378.139 645.627 379.165 645.87 379.948C646.131 380.713 646.47 381.27 646.888 381.617C647.323 381.965 647.818 382.139 648.375 382.139ZM660.887 386L668.008 369.643L669.391 371.835H660.13L662.243 369.461V374.652H657.834V367.739H672.965V370.974L666.521 386H660.887Z" fill="white"/>
<path d="M54.2783 386.365C53.0261 386.365 51.7652 386.209 50.4957 385.896C49.2261 385.583 48.1304 385.139 47.2087 384.565L49.0609 380.678C49.8087 381.165 50.6174 381.539 51.487 381.8C52.3739 382.061 53.2522 382.191 54.1217 382.191C54.9913 382.191 55.6957 382.026 56.2348 381.696C56.7739 381.348 57.0435 380.87 57.0435 380.261C57.0435 379.896 56.9391 379.574 56.7304 379.296C56.5217 379 56.1652 378.783 55.6609 378.643C55.1565 378.487 54.4348 378.409 53.4957 378.409H48.5391L49.4522 367.739H61.087V371.73H51.2783L53.913 369.461L53.313 376.661L50.6783 374.391H54.7217C56.5304 374.391 57.9826 374.652 59.0783 375.174C60.1739 375.678 60.9739 376.365 61.4783 377.235C61.9826 378.087 62.2348 379.052 62.2348 380.13C62.2348 381.209 61.9478 382.226 61.3739 383.183C60.8174 384.122 59.9565 384.887 58.7913 385.478C57.6261 386.07 56.1217 386.365 54.2783 386.365ZM64.6719 386V367.739H73.3067C75.324 367.739 77.098 368.113 78.6284 368.861C80.1588 369.609 81.3501 370.661 82.2023 372.017C83.0719 373.374 83.5067 374.991 83.5067 376.87C83.5067 378.73 83.0719 380.348 82.2023 381.722C81.3501 383.078 80.1588 384.13 78.6284 384.878C77.098 385.626 75.324 386 73.3067 386H64.6719ZM69.8371 381.878H73.098C74.1414 381.878 75.0458 381.687 75.811 381.304C76.5936 380.904 77.2023 380.33 77.6371 379.583C78.0719 378.817 78.2893 377.913 78.2893 376.87C78.2893 375.809 78.0719 374.904 77.6371 374.157C77.2023 373.409 76.5936 372.843 75.811 372.461C75.0458 372.061 74.1414 371.861 73.098 371.861H69.8371V381.878ZM91.6764 386.365C90.4242 386.365 89.1633 386.209 87.8938 385.896C86.6242 385.583 85.5285 385.139 84.6068 384.565L86.459 380.678C87.2068 381.165 88.0155 381.539 88.8851 381.8C89.772 382.061 90.6503 382.191 91.5198 382.191C92.3894 382.191 93.0938 382.026 93.6329 381.696C94.172 381.348 94.4416 380.87 94.4416 380.261C94.4416 379.896 94.3372 379.574 94.1285 379.296C93.9198 379 93.5633 378.783 93.059 378.643C92.5546 378.487 91.8329 378.409 90.8938 378.409H85.9372L86.8503 367.739H98.4851V371.73H88.6764L91.3111 369.461L90.7111 376.661L88.0764 374.391H92.1198C93.9285 374.391 95.3807 374.652 96.4764 375.174C97.572 375.678 98.372 376.365 98.8764 377.235C99.3807 378.087 99.6329 379.052 99.6329 380.13C99.6329 381.209 99.3459 382.226 98.772 383.183C98.2155 384.122 97.3546 384.887 96.1894 385.478C95.0242 386.07 93.5198 386.365 91.6764 386.365ZM102.07 386V367.739H110.705C112.722 367.739 114.496 368.113 116.026 368.861C117.557 369.609 118.748 370.661 119.6 372.017C120.47 373.374 120.905 374.991 120.905 376.87C120.905 378.73 120.47 380.348 119.6 381.722C118.748 383.078 117.557 384.13 116.026 384.878C114.496 385.626 112.722 386 110.705 386H102.07ZM107.235 381.878H110.496C111.54 381.878 112.444 381.687 113.209 381.304C113.992 380.904 114.6 380.33 115.035 379.583C115.47 378.817 115.687 377.913 115.687 376.87C115.687 375.809 115.47 374.904 115.035 374.157C114.6 373.409 113.992 372.843 113.209 372.461C112.444 372.061 111.54 371.861 110.496 371.861H107.235V381.878ZM129.074 386.365C127.822 386.365 126.561 386.209 125.292 385.896C124.022 385.583 122.927 385.139 122.005 384.565L123.857 380.678C124.605 381.165 125.414 381.539 126.283 381.8C127.17 382.061 128.048 382.191 128.918 382.191C129.788 382.191 130.492 382.026 131.031 381.696C131.57 381.348 131.84 380.87 131.84 380.261C131.84 379.896 131.735 379.574 131.527 379.296C131.318 379 130.961 378.783 130.457 378.643C129.953 378.487 129.231 378.409 128.292 378.409H123.335L124.248 367.739H135.883V371.73H126.074L128.709 369.461L128.109 376.661L125.474 374.391H129.518C131.327 374.391 132.779 374.652 133.874 375.174C134.97 375.678 135.77 376.365 136.274 377.235C136.779 378.087 137.031 379.052 137.031 380.13C137.031 381.209 136.744 382.226 136.17 383.183C135.614 384.122 134.753 384.887 133.588 385.478C132.422 386.07 130.918 386.365 129.074 386.365ZM139.468 386V367.739H148.103C150.12 367.739 151.894 368.113 153.425 368.861C154.955 369.609 156.146 370.661 156.999 372.017C157.868 373.374 158.303 374.991 158.303 376.87C158.303 378.73 157.868 380.348 156.999 381.722C156.146 383.078 154.955 384.13 153.425 384.878C151.894 385.626 150.12 386 148.103 386H139.468ZM144.633 381.878H147.894C148.938 381.878 149.842 381.687 150.607 381.304C151.39 380.904 151.999 380.33 152.433 379.583C152.868 378.817 153.085 377.913 153.085 376.87C153.085 375.809 152.868 374.904 152.433 374.157C151.999 373.409 151.39 372.843 150.607 372.461C149.842 372.061 148.938 371.861 147.894 371.861H144.633V381.878Z" fill="white"/>
<path d="M305.826 386V367.739H314.461C316.478 367.739 318.252 368.113 319.783 368.861C321.313 369.609 322.504 370.661 323.357 372.017C324.226 373.374 324.661 374.991 324.661 376.87C324.661 378.73 324.226 380.348 323.357 381.722C322.504 383.078 321.313 384.13 319.783 384.878C318.252 385.626 316.478 386 314.461 386H305.826ZM310.991 381.878H314.252C315.296 381.878 316.2 381.687 316.965 381.304C317.748 380.904 318.357 380.33 318.791 379.583C319.226 378.817 319.443 377.913 319.443 376.87C319.443 375.809 319.226 374.904 318.791 374.157C318.357 373.409 317.748 372.843 316.965 372.461C316.2 372.061 315.296 371.861 314.252 371.861H310.991V381.878ZM333.118 367.374C334.839 367.374 336.326 367.713 337.578 368.391C338.848 369.07 339.831 370.078 340.526 371.417C341.239 372.739 341.596 374.391 341.596 376.374C341.596 378.496 341.178 380.304 340.344 381.8C339.526 383.278 338.387 384.409 336.926 385.191C335.483 385.974 333.796 386.365 331.865 386.365C330.857 386.365 329.883 386.243 328.944 386C328.004 385.774 327.196 385.452 326.518 385.035L328.396 381.33C328.918 381.696 329.457 381.948 330.013 382.087C330.587 382.209 331.17 382.27 331.761 382.27C333.17 382.27 334.291 381.843 335.126 380.991C335.961 380.139 336.378 378.896 336.378 377.261C336.378 376.965 336.378 376.661 336.378 376.348C336.378 376.017 336.352 375.687 336.3 375.357L337.578 376.426C337.265 377.07 336.857 377.609 336.352 378.043C335.848 378.478 335.257 378.809 334.578 379.035C333.9 379.261 333.126 379.374 332.257 379.374C331.109 379.374 330.057 379.139 329.1 378.67C328.161 378.183 327.404 377.513 326.831 376.661C326.257 375.791 325.97 374.774 325.97 373.609C325.97 372.339 326.291 371.243 326.935 370.322C327.578 369.383 328.439 368.661 329.518 368.157C330.596 367.635 331.796 367.374 333.118 367.374ZM333.457 371.052C332.97 371.052 332.544 371.148 332.178 371.339C331.813 371.53 331.518 371.8 331.291 372.148C331.083 372.478 330.978 372.887 330.978 373.374C330.978 374.07 331.204 374.626 331.657 375.043C332.126 375.461 332.735 375.67 333.483 375.67C333.987 375.67 334.431 375.574 334.813 375.383C335.196 375.191 335.491 374.922 335.7 374.574C335.909 374.226 336.013 373.817 336.013 373.348C336.013 372.896 335.909 372.504 335.7 372.174C335.491 371.826 335.196 371.557 334.813 371.365C334.431 371.157 333.978 371.052 333.457 371.052ZM344.32 386V367.739H352.954C354.972 367.739 356.746 368.113 358.276 368.861C359.807 369.609 360.998 370.661 361.85 372.017C362.72 373.374 363.154 374.991 363.154 376.87C363.154 378.73 362.72 380.348 361.85 381.722C360.998 383.078 359.807 384.13 358.276 384.878C356.746 385.626 354.972 386 352.954 386H344.32ZM349.485 381.878H352.746C353.789 381.878 354.694 381.687 355.459 381.304C356.241 380.904 356.85 380.33 357.285 379.583C357.72 378.817 357.937 377.913 357.937 376.87C357.937 375.809 357.72 374.904 357.285 374.157C356.85 373.409 356.241 372.843 355.459 372.461C354.694 372.061 353.789 371.861 352.746 371.861H349.485V381.878ZM371.611 367.374C373.333 367.374 374.82 367.713 376.072 368.391C377.342 369.07 378.324 370.078 379.02 371.417C379.733 372.739 380.089 374.391 380.089 376.374C380.089 378.496 379.672 380.304 378.837 381.8C378.02 383.278 376.881 384.409 375.42 385.191C373.976 385.974 372.289 386.365 370.359 386.365C369.35 386.365 368.376 386.243 367.437 386C366.498 385.774 365.689 385.452 365.011 385.035L366.889 381.33C367.411 381.696 367.95 381.948 368.507 382.087C369.081 382.209 369.663 382.27 370.255 382.27C371.663 382.27 372.785 381.843 373.62 380.991C374.455 380.139 374.872 378.896 374.872 377.261C374.872 376.965 374.872 376.661 374.872 376.348C374.872 376.017 374.846 375.687 374.794 375.357L376.072 376.426C375.759 377.07 375.35 377.609 374.846 378.043C374.342 378.478 373.75 378.809 373.072 379.035C372.394 379.261 371.62 379.374 370.75 379.374C369.602 379.374 368.55 379.139 367.594 378.67C366.655 378.183 365.898 377.513 365.324 376.661C364.75 375.791 364.463 374.774 364.463 373.609C364.463 372.339 364.785 371.243 365.428 370.322C366.072 369.383 366.933 368.661 368.011 368.157C369.089 367.635 370.289 367.374 371.611 367.374ZM371.95 371.052C371.463 371.052 371.037 371.148 370.672 371.339C370.307 371.53 370.011 371.8 369.785 372.148C369.576 372.478 369.472 372.887 369.472 373.374C369.472 374.07 369.698 374.626 370.15 375.043C370.62 375.461 371.228 375.67 371.976 375.67C372.481 375.67 372.924 375.574 373.307 375.383C373.689 375.191 373.985 374.922 374.194 374.574C374.402 374.226 374.507 373.817 374.507 373.348C374.507 372.896 374.402 372.504 374.194 372.174C373.985 371.826 373.689 371.557 373.307 371.365C372.924 371.157 372.472 371.052 371.95 371.052ZM382.813 386V367.739H391.448C393.465 367.739 395.239 368.113 396.77 368.861C398.3 369.609 399.491 370.661 400.344 372.017C401.213 373.374 401.648 374.991 401.648 376.87C401.648 378.73 401.213 380.348 400.344 381.722C399.491 383.078 398.3 384.13 396.77 384.878C395.239 385.626 393.465 386 391.448 386H382.813ZM387.978 381.878H391.239C392.283 381.878 393.187 381.687 393.952 381.304C394.735 380.904 395.344 380.33 395.778 379.583C396.213 378.817 396.431 377.913 396.431 376.87C396.431 375.809 396.213 374.904 395.778 374.157C395.344 373.409 394.735 372.843 393.952 372.461C393.187 372.061 392.283 371.861 391.239 371.861H387.978V381.878ZM410.105 367.374C411.826 367.374 413.313 367.713 414.565 368.391C415.835 369.07 416.818 370.078 417.513 371.417C418.226 372.739 418.583 374.391 418.583 376.374C418.583 378.496 418.165 380.304 417.331 381.8C416.513 383.278 415.374 384.409 413.913 385.191C412.47 385.974 410.783 386.365 408.852 386.365C407.844 386.365 406.87 386.243 405.931 386C404.992 385.774 404.183 385.452 403.505 385.035L405.383 381.33C405.905 381.696 406.444 381.948 407 382.087C407.574 382.209 408.157 382.27 408.748 382.27C410.157 382.27 411.279 381.843 412.113 380.991C412.948 380.139 413.365 378.896 413.365 377.261C413.365 376.965 413.365 376.661 413.365 376.348C413.365 376.017 413.339 375.687 413.287 375.357L414.565 376.426C414.252 377.07 413.844 377.609 413.339 378.043C412.835 378.478 412.244 378.809 411.565 379.035C410.887 379.261 410.113 379.374 409.244 379.374C408.096 379.374 407.044 379.139 406.087 378.67C405.148 378.183 404.392 377.513 403.818 376.661C403.244 375.791 402.957 374.774 402.957 373.609C402.957 372.339 403.279 371.243 403.922 370.322C404.565 369.383 405.426 368.661 406.505 368.157C407.583 367.635 408.783 367.374 410.105 367.374ZM410.444 371.052C409.957 371.052 409.531 371.148 409.165 371.339C408.8 371.53 408.505 371.8 408.279 372.148C408.07 372.478 407.965 372.887 407.965 373.374C407.965 374.07 408.192 374.626 408.644 375.043C409.113 375.461 409.722 375.67 410.47 375.67C410.974 375.67 411.418 375.574 411.8 375.383C412.183 375.191 412.479 374.922 412.687 374.574C412.896 374.226 413 373.817 413 373.348C413 372.896 412.896 372.504 412.687 372.174C412.479 371.826 412.183 371.557 411.8 371.365C411.418 371.157 410.965 371.052 410.444 371.052Z" fill="white"/>
</svg>
