<svg width="216" height="249" viewBox="0 0 216 249" fill="none" xmlns="http://www.w3.org/2000/svg">
<g filter="url(#filter0_d_3_303)">
<path d="M8 8C8 5.79086 9.79086 4 12 4H95.1186C97.3278 4 99.1186 5.79086 99.1186 8V107.064C99.1186 109.274 97.3278 111.064 95.1186 111.064H12C9.79086 111.064 8 109.274 8 107.064V8Z" fill="white"/>
</g>
<path d="M20.7958 81.5771C20.1718 81.5771 19.5718 81.4771 18.9958 81.2771C18.4278 81.0691 17.9878 80.8051 17.6758 80.4851L18.0238 79.8011C18.3198 80.0891 18.7158 80.3331 19.2118 80.5331C19.7158 80.7251 20.2438 80.8211 20.7958 80.8211C21.3238 80.8211 21.7518 80.7571 22.0798 80.6291C22.4158 80.4931 22.6598 80.3131 22.8118 80.0891C22.9718 79.8651 23.0518 79.6171 23.0518 79.3451C23.0518 79.0171 22.9558 78.7531 22.7638 78.5531C22.5798 78.3531 22.3358 78.1971 22.0318 78.0851C21.7278 77.9651 21.3918 77.8611 21.0238 77.7731C20.6558 77.6851 20.2878 77.5931 19.9198 77.4971C19.5518 77.3931 19.2118 77.2571 18.8998 77.0891C18.5958 76.9211 18.3478 76.7011 18.1558 76.4291C17.9718 76.1491 17.8798 75.7851 17.8798 75.3371C17.8798 74.9211 17.9878 74.5411 18.2038 74.1971C18.4278 73.8451 18.7678 73.5651 19.2238 73.3571C19.6798 73.1411 20.2638 73.0331 20.9758 73.0331C21.4478 73.0331 21.9158 73.1011 22.3798 73.2371C22.8438 73.3651 23.2438 73.5451 23.5798 73.7771L23.2798 74.4851C22.9198 74.2451 22.5358 74.0691 22.1278 73.9571C21.7278 73.8451 21.3398 73.7891 20.9638 73.7891C20.4598 73.7891 20.0438 73.8571 19.7158 73.9931C19.3878 74.1291 19.1438 74.3131 18.9838 74.5451C18.8318 74.7691 18.7558 75.0251 18.7558 75.3131C18.7558 75.6411 18.8478 75.9051 19.0318 76.1051C19.2238 76.3051 19.4718 76.4611 19.7758 76.5731C20.0878 76.6851 20.4278 76.7851 20.7958 76.8731C21.1638 76.9611 21.5278 77.0571 21.8878 77.1611C22.2558 77.2651 22.5918 77.4011 22.8958 77.5691C23.2078 77.7291 23.4558 77.9451 23.6398 78.2171C23.8318 78.4891 23.9278 78.8451 23.9278 79.2851C23.9278 79.6931 23.8158 80.0731 23.5918 80.4251C23.3678 80.7691 23.0238 81.0491 22.5598 81.2651C22.1038 81.4731 21.5158 81.5771 20.7958 81.5771ZM28.2866 81.5651C27.7506 81.5651 27.2826 81.4651 26.8826 81.2651C26.4826 81.0651 26.1706 80.7651 25.9466 80.3651C25.7306 79.9651 25.6226 79.4651 25.6226 78.8651V75.2051H26.4746V78.7691C26.4746 79.4411 26.6386 79.9491 26.9666 80.2931C27.3026 80.6291 27.7706 80.7971 28.3706 80.7971C28.8106 80.7971 29.1906 80.7091 29.5106 80.5331C29.8386 80.3491 30.0866 80.0851 30.2546 79.7411C30.4306 79.3971 30.5186 78.9851 30.5186 78.5051V75.2051H31.3706V81.5051H30.5546V79.7771L30.6866 80.0891C30.4866 80.5531 30.1746 80.9171 29.7506 81.1811C29.3346 81.4371 28.8466 81.5651 28.2866 81.5651ZM36.9971 81.5651C36.4531 81.5651 35.9611 81.4411 35.5211 81.1931C35.0811 80.9371 34.7291 80.5731 34.4651 80.1011C34.2091 79.6211 34.0811 79.0371 34.0811 78.3491C34.0811 77.6611 34.2091 77.0811 34.4651 76.6091C34.7211 76.1291 35.0691 75.7651 35.5091 75.5171C35.9491 75.2691 36.4451 75.1451 36.9971 75.1451C37.5971 75.1451 38.1331 75.2811 38.6051 75.5531C39.0851 75.8171 39.4611 76.1931 39.7331 76.6811C40.0051 77.1611 40.1411 77.7171 40.1411 78.3491C40.1411 78.9891 40.0051 79.5491 39.7331 80.0291C39.4611 80.5091 39.0851 80.8851 38.6051 81.1571C38.1331 81.4291 37.5971 81.5651 36.9971 81.5651ZM33.7451 83.8331V75.2051H34.5611V77.1011L34.4771 78.3611L34.5971 79.6331V83.8331H33.7451ZM36.9371 80.8091C37.3851 80.8091 37.7851 80.7091 38.1371 80.5091C38.4891 80.3011 38.7691 80.0131 38.9771 79.6451C39.1851 79.2691 39.2891 78.8371 39.2891 78.3491C39.2891 77.8611 39.1851 77.4331 38.9771 77.0651C38.7691 76.6971 38.4891 76.4091 38.1371 76.2011C37.7851 75.9931 37.3851 75.8891 36.9371 75.8891C36.4891 75.8891 36.0851 75.9931 35.7251 76.2011C35.3731 76.4091 35.0931 76.6971 34.8851 77.0651C34.6851 77.4331 34.5851 77.8611 34.5851 78.3491C34.5851 78.8371 34.6851 79.2691 34.8851 79.6451C35.0931 80.0131 35.3731 80.3011 35.7251 80.5091C36.0851 80.7091 36.4891 80.8091 36.9371 80.8091ZM44.5539 81.5651C43.8979 81.5651 43.3219 81.4291 42.8259 81.1571C42.3299 80.8771 41.9419 80.4971 41.6619 80.0171C41.3819 79.5291 41.2419 78.9731 41.2419 78.3491C41.2419 77.7251 41.3739 77.1731 41.6379 76.6931C41.9099 76.2131 42.2779 75.8371 42.7419 75.5651C43.2139 75.2851 43.7419 75.1451 44.3259 75.1451C44.9179 75.1451 45.4419 75.2811 45.8979 75.5531C46.3619 75.8171 46.7259 76.1931 46.9899 76.6811C47.2539 77.1611 47.3859 77.7171 47.3859 78.3491C47.3859 78.3891 47.3819 78.4331 47.3739 78.4811C47.3739 78.5211 47.3739 78.5651 47.3739 78.6131H41.8899V77.9771H46.9179L46.5819 78.2291C46.5819 77.7731 46.4819 77.3691 46.2819 77.0171C46.0899 76.6571 45.8259 76.3771 45.4899 76.1771C45.1539 75.9771 44.7659 75.8771 44.3259 75.8771C43.8939 75.8771 43.5059 75.9771 43.1619 76.1771C42.8179 76.3771 42.5499 76.6571 42.3579 77.0171C42.1659 77.3771 42.0699 77.7891 42.0699 78.2531V78.3851C42.0699 78.8651 42.1739 79.2891 42.3819 79.6571C42.5979 80.0171 42.8939 80.3011 43.2699 80.5091C43.6539 80.7091 44.0899 80.8091 44.5779 80.8091C44.9619 80.8091 45.3179 80.7411 45.6459 80.6051C45.9819 80.4691 46.2699 80.2611 46.5099 79.9811L46.9899 80.5331C46.7099 80.8691 46.3579 81.1251 45.9339 81.3011C45.5179 81.4771 45.0579 81.5651 44.5539 81.5651ZM49.1201 81.5051V75.2051H49.9361V76.9211L49.8521 76.6211C50.0281 76.1411 50.3241 75.7771 50.7401 75.5291C51.1561 75.2731 51.6721 75.1451 52.2881 75.1451V75.9731C52.2561 75.9731 52.2241 75.9731 52.1921 75.9731C52.1601 75.9651 52.1281 75.9611 52.0961 75.9611C51.4321 75.9611 50.9121 76.1651 50.5361 76.5731C50.1601 76.9731 49.9721 77.5451 49.9721 78.2891V81.5051H49.1201ZM57.0588 75.1451C57.5708 75.1451 58.0188 75.2451 58.4028 75.4451C58.7948 75.6371 59.0988 75.9331 59.3148 76.3331C59.5388 76.7331 59.6508 77.2371 59.6508 77.8451V81.5051H58.7988V77.9291C58.7988 77.2651 58.6308 76.7651 58.2948 76.4291C57.9668 76.0851 57.5028 75.9131 56.9028 75.9131C56.4548 75.9131 56.0628 76.0051 55.7268 76.1891C55.3988 76.3651 55.1428 76.6251 54.9588 76.9691C54.7828 77.3051 54.6948 77.7131 54.6948 78.1931V81.5051H53.8428V75.2051H54.6588V76.9331L54.5268 76.6091C54.7268 76.1531 55.0468 75.7971 55.4868 75.5411C55.9268 75.2771 56.4508 75.1451 57.0588 75.1451ZM64.5202 81.5651C63.9122 81.5651 63.3642 81.4291 62.8762 81.1571C62.3962 80.8771 62.0162 80.4971 61.7362 80.0171C61.4562 79.5291 61.3162 78.9731 61.3162 78.3491C61.3162 77.7171 61.4562 77.1611 61.7362 76.6811C62.0162 76.2011 62.3962 75.8251 62.8762 75.5531C63.3562 75.2811 63.9042 75.1451 64.5202 75.1451C65.1442 75.1451 65.6962 75.2811 66.1762 75.5531C66.6642 75.8251 67.0442 76.2011 67.3162 76.6811C67.5962 77.1611 67.7362 77.7171 67.7362 78.3491C67.7362 78.9731 67.5962 79.5291 67.3162 80.0171C67.0442 80.4971 66.6642 80.8771 66.1762 81.1571C65.6882 81.4291 65.1362 81.5651 64.5202 81.5651ZM64.5202 80.8091C64.9762 80.8091 65.3802 80.7091 65.7322 80.5091C66.0842 80.3011 66.3602 80.0131 66.5602 79.6451C66.7682 79.2691 66.8722 78.8371 66.8722 78.3491C66.8722 77.8531 66.7682 77.4211 66.5602 77.0531C66.3602 76.6851 66.0842 76.4011 65.7322 76.2011C65.3802 75.9931 64.9802 75.8891 64.5322 75.8891C64.0842 75.8891 63.6842 75.9931 63.3322 76.2011C62.9802 76.4011 62.7002 76.6851 62.4922 77.0531C62.2842 77.4211 62.1802 77.8531 62.1802 78.3491C62.1802 78.8371 62.2842 79.2691 62.4922 79.6451C62.7002 80.0131 62.9802 80.3011 63.3322 80.5091C63.6842 80.7091 64.0802 80.8091 64.5202 80.8091ZM70.9198 81.5051L68.1238 75.2051H69.0118L71.5798 81.0491H71.1598L73.7638 75.2051H74.6038L71.7958 81.5051H70.9198ZM79.5642 81.5051V80.1131L79.5282 79.8851V77.5571C79.5282 77.0211 79.3762 76.6091 79.0722 76.3211C78.7762 76.0331 78.3322 75.8891 77.7402 75.8891C77.3322 75.8891 76.9442 75.9571 76.5762 76.0931C76.2082 76.2291 75.8962 76.4091 75.6402 76.6331L75.2562 75.9971C75.5762 75.7251 75.9602 75.5171 76.4082 75.3731C76.8562 75.2211 77.3282 75.1451 77.8242 75.1451C78.6402 75.1451 79.2682 75.3491 79.7082 75.7571C80.1562 76.1571 80.3802 76.7691 80.3802 77.5931V81.5051H79.5642ZM77.3922 81.5651C76.9202 81.5651 76.5082 81.4891 76.1562 81.3371C75.8122 81.1771 75.5482 80.9611 75.3642 80.6891C75.1802 80.4091 75.0882 80.0891 75.0882 79.7291C75.0882 79.4011 75.1642 79.1051 75.3162 78.8411C75.4762 78.5691 75.7322 78.3531 76.0842 78.1931C76.4442 78.0251 76.9242 77.9411 77.5242 77.9411H79.6962V78.5771H77.5482C76.9402 78.5771 76.5162 78.6851 76.2762 78.9011C76.0442 79.1171 75.9282 79.3851 75.9282 79.7051C75.9282 80.0651 76.0682 80.3531 76.3482 80.5691C76.6282 80.7851 77.0202 80.8931 77.5242 80.8931C78.0042 80.8931 78.4162 80.7851 78.7602 80.5691C79.1122 80.3451 79.3682 80.0251 79.5282 79.6091L79.7202 80.1971C79.5602 80.6131 79.2802 80.9451 78.8802 81.1931C78.4882 81.4411 77.9922 81.5651 77.3922 81.5651Z" fill="#232735"/>
<path d="M22.0078 104.505L23.0398 96.1051H23.6878L22.6558 104.505H22.0078ZM17.4598 102.225V101.565H24.7198V102.225H17.4598ZM18.8878 104.505L19.9198 96.1051H20.5798L19.5358 104.505H18.8878ZM17.8438 99.0451V98.3851H25.1038V99.0451H17.8438ZM27.6273 100.173H32.0673V100.941H27.6273V100.173ZM27.7233 104.505H26.8353V96.1051H32.5953V96.8731H27.7233V104.505ZM32.6866 104.505L36.5266 96.1051H37.4026L41.2426 104.505H40.3066L36.7786 96.6211H37.1386L33.6106 104.505H32.6866ZM34.1986 102.261L34.4626 101.541H39.3466L39.6106 102.261H34.1986ZM46.163 104.577C45.531 104.577 44.947 104.473 44.411 104.265C43.875 104.049 43.411 103.749 43.019 103.365C42.627 102.981 42.319 102.529 42.095 102.009C41.879 101.489 41.771 100.921 41.771 100.305C41.771 99.6891 41.879 99.1211 42.095 98.6011C42.319 98.0811 42.627 97.6291 43.019 97.2451C43.419 96.8611 43.887 96.5651 44.423 96.3571C44.959 96.1411 45.543 96.0331 46.175 96.0331C46.783 96.0331 47.355 96.1371 47.891 96.3451C48.427 96.5451 48.879 96.8491 49.247 97.2571L48.683 97.8211C48.339 97.4691 47.959 97.2171 47.543 97.0651C47.127 96.9051 46.679 96.8251 46.199 96.8251C45.695 96.8251 45.227 96.9131 44.795 97.0891C44.363 97.2571 43.987 97.5011 43.667 97.8211C43.347 98.1331 43.095 98.5011 42.911 98.9251C42.735 99.3411 42.647 99.8011 42.647 100.305C42.647 100.809 42.735 101.273 42.911 101.697C43.095 102.113 43.347 102.481 43.667 102.801C43.987 103.113 44.363 103.357 44.795 103.533C45.227 103.701 45.695 103.785 46.199 103.785C46.679 103.785 47.127 103.705 47.543 103.545C47.959 103.385 48.339 103.129 48.683 102.777L49.247 103.341C48.879 103.749 48.427 104.057 47.891 104.265C47.355 104.473 46.779 104.577 46.163 104.577ZM54.6122 104.577C53.9802 104.577 53.3962 104.473 52.8602 104.265C52.3242 104.049 51.8602 103.749 51.4682 103.365C51.0762 102.981 50.7682 102.529 50.5442 102.009C50.3282 101.489 50.2202 100.921 50.2202 100.305C50.2202 99.6891 50.3282 99.1211 50.5442 98.6011C50.7682 98.0811 51.0762 97.6291 51.4682 97.2451C51.8682 96.8611 52.3362 96.5651 52.8722 96.3571C53.4082 96.1411 53.9922 96.0331 54.6242 96.0331C55.2322 96.0331 55.8042 96.1371 56.3402 96.3451C56.8762 96.5451 57.3282 96.8491 57.6962 97.2571L57.1322 97.8211C56.7882 97.4691 56.4082 97.2171 55.9922 97.0651C55.5762 96.9051 55.1282 96.8251 54.6482 96.8251C54.1442 96.8251 53.6762 96.9131 53.2442 97.0891C52.8122 97.2571 52.4362 97.5011 52.1162 97.8211C51.7962 98.1331 51.5442 98.5011 51.3602 98.9251C51.1842 99.3411 51.0962 99.8011 51.0962 100.305C51.0962 100.809 51.1842 101.273 51.3602 101.697C51.5442 102.113 51.7962 102.481 52.1162 102.801C52.4362 103.113 52.8122 103.357 53.2442 103.533C53.6762 103.701 54.1442 103.785 54.6482 103.785C55.1282 103.785 55.5762 103.705 55.9922 103.545C56.4082 103.385 56.7882 103.129 57.1322 102.777L57.6962 103.341C57.3282 103.749 56.8762 104.057 56.3402 104.265C55.8042 104.473 55.2282 104.577 54.6122 104.577ZM61.9119 104.577C61.2639 104.577 60.6879 104.409 60.1839 104.073C59.6799 103.729 59.2839 103.241 58.9959 102.609C58.7079 101.969 58.5639 101.201 58.5639 100.305C58.5639 99.4091 58.7079 98.6451 58.9959 98.0131C59.2839 97.3731 59.6799 96.8851 60.1839 96.5491C60.6879 96.2051 61.2639 96.0331 61.9119 96.0331C62.5599 96.0331 63.1359 96.2051 63.6399 96.5491C64.1439 96.8851 64.5399 97.3731 64.8279 98.0131C65.1239 98.6451 65.2719 99.4091 65.2719 100.305C65.2719 101.201 65.1239 101.969 64.8279 102.609C64.5399 103.241 64.1439 103.729 63.6399 104.073C63.1359 104.409 62.5599 104.577 61.9119 104.577ZM61.9119 103.785C62.4079 103.785 62.8399 103.653 63.2079 103.389C63.5759 103.117 63.8639 102.725 64.0719 102.213C64.2799 101.693 64.3839 101.057 64.3839 100.305C64.3839 99.5531 64.2799 98.9211 64.0719 98.4091C63.8639 97.8891 63.5759 97.4971 63.2079 97.2331C62.8399 96.9611 62.4079 96.8251 61.9119 96.8251C61.4319 96.8251 61.0039 96.9611 60.6279 97.2331C60.2519 97.4971 59.9599 97.8891 59.7519 98.4091C59.5439 98.9211 59.4399 99.5531 59.4399 100.305C59.4399 101.057 59.5439 101.693 59.7519 102.213C59.9599 102.725 60.2519 103.117 60.6279 103.389C61.0039 103.653 61.4319 103.785 61.9119 103.785ZM69.7013 104.577C69.0293 104.577 68.4493 104.481 67.9613 104.289C67.4813 104.097 67.1093 103.821 66.8453 103.461C66.5893 103.093 66.4613 102.661 66.4613 102.165C66.4613 101.685 66.5853 101.277 66.8333 100.941C67.0893 100.597 67.4573 100.333 67.9373 100.149C68.4253 99.9651 69.0133 99.8731 69.7013 99.8731C70.3813 99.8731 70.9653 99.9651 71.4533 100.149C71.9413 100.333 72.3133 100.597 72.5693 100.941C72.8333 101.277 72.9653 101.685 72.9653 102.165C72.9653 102.661 72.8333 103.093 72.5693 103.461C72.3053 103.821 71.9293 104.097 71.4413 104.289C70.9533 104.481 70.3733 104.577 69.7013 104.577ZM69.7013 103.845C70.4453 103.845 71.0253 103.693 71.4413 103.389C71.8653 103.085 72.0773 102.673 72.0773 102.153C72.0773 101.633 71.8653 101.225 71.4413 100.929C71.0253 100.625 70.4453 100.473 69.7013 100.473C68.9573 100.473 68.3773 100.625 67.9613 100.929C67.5453 101.225 67.3373 101.633 67.3373 102.153C67.3373 102.673 67.5453 103.085 67.9613 103.389C68.3773 103.693 68.9573 103.845 69.7013 103.845ZM69.7013 100.365C69.0773 100.365 68.5453 100.281 68.1053 100.113C67.6733 99.9451 67.3413 99.7051 67.1093 99.3931C66.8773 99.0731 66.7613 98.6931 66.7613 98.2531C66.7613 97.7891 66.8813 97.3931 67.1213 97.0651C67.3693 96.7291 67.7133 96.4731 68.1533 96.2971C68.5933 96.1211 69.1093 96.0331 69.7013 96.0331C70.2933 96.0331 70.8093 96.1211 71.2493 96.2971C71.6973 96.4731 72.0453 96.7291 72.2933 97.0651C72.5413 97.3931 72.6653 97.7891 72.6653 98.2531C72.6653 98.6931 72.5493 99.0731 72.3173 99.3931C72.0853 99.7051 71.7453 99.9451 71.2973 100.113C70.8573 100.281 70.3253 100.365 69.7013 100.365ZM69.7013 99.7891C70.3573 99.7891 70.8693 99.6531 71.2373 99.3811C71.6053 99.1091 71.7893 98.7451 71.7893 98.2891C71.7893 97.8091 71.5973 97.4371 71.2133 97.1731C70.8373 96.9011 70.3333 96.7651 69.7013 96.7651C69.0693 96.7651 68.5653 96.9011 68.1893 97.1731C67.8133 97.4371 67.6253 97.8051 67.6253 98.2771C67.6253 98.7411 67.8053 99.1091 68.1653 99.3811C68.5333 99.6531 69.0453 99.7891 69.7013 99.7891Z" fill="#505565"/>
<path d="M8 8C8 5.79087 9.79086 4 12 4H95.1186C97.3278 4 99.1186 5.79086 99.1186 8V60.9492H8V8Z" fill="#FACC08"/>
<g filter="url(#filter1_d_3_303)">
<path d="M8 133.858C8 131.649 9.79086 129.858 12 129.858H95.1186C97.3278 129.858 99.1186 131.649 99.1186 133.858V232.922C99.1186 235.131 97.3278 236.922 95.1186 236.922H12C9.79086 236.922 8 235.131 8 232.922V133.858Z" fill="white"/>
</g>
<path d="M22.1638 207.435C21.5238 207.435 20.9318 207.331 20.3878 207.123C19.8518 206.907 19.3838 206.607 18.9838 206.223C18.5918 205.839 18.2838 205.387 18.0598 204.867C17.8438 204.347 17.7358 203.779 17.7358 203.163C17.7358 202.547 17.8438 201.979 18.0598 201.459C18.2838 200.939 18.5958 200.487 18.9958 200.103C19.3958 199.719 19.8638 199.423 20.3998 199.215C20.9438 198.999 21.5358 198.891 22.1758 198.891C22.8158 198.891 23.3998 198.991 23.9278 199.191C24.4638 199.391 24.9198 199.695 25.2958 200.103L24.7438 200.667C24.3918 200.315 24.0038 200.063 23.5798 199.911C23.1558 199.759 22.6998 199.683 22.2118 199.683C21.6918 199.683 21.2118 199.771 20.7718 199.947C20.3398 200.115 19.9598 200.359 19.6318 200.679C19.3118 200.991 19.0598 201.359 18.8758 201.783C18.6998 202.199 18.6118 202.659 18.6118 203.163C18.6118 203.659 18.6998 204.119 18.8758 204.543C19.0598 204.967 19.3118 205.339 19.6318 205.659C19.9598 205.971 20.3398 206.215 20.7718 206.391C21.2118 206.559 21.6878 206.643 22.1998 206.643C22.6798 206.643 23.1318 206.571 23.5558 206.427C23.9878 206.283 24.3838 206.039 24.7438 205.695L25.2478 206.367C24.8478 206.719 24.3798 206.987 23.8438 207.171C23.3078 207.347 22.7478 207.435 22.1638 207.435ZM24.3958 206.259V203.163H25.2478V206.367L24.3958 206.259ZM31.5291 207.363V205.971L31.4931 205.743V203.415C31.4931 202.879 31.3411 202.467 31.0371 202.179C30.7411 201.891 30.2971 201.747 29.7051 201.747C29.2971 201.747 28.9091 201.815 28.5411 201.951C28.1731 202.087 27.8611 202.267 27.6051 202.491L27.2211 201.855C27.5411 201.583 27.9251 201.375 28.3731 201.231C28.8211 201.079 29.2931 201.003 29.7891 201.003C30.6051 201.003 31.2331 201.207 31.6731 201.615C32.1211 202.015 32.3451 202.627 32.3451 203.451V207.363H31.5291ZM29.3571 207.423C28.8851 207.423 28.4731 207.347 28.1211 207.195C27.7771 207.035 27.5131 206.819 27.3291 206.547C27.1451 206.267 27.0531 205.947 27.0531 205.587C27.0531 205.259 27.1291 204.963 27.2811 204.699C27.4411 204.427 27.6971 204.211 28.0491 204.051C28.4091 203.883 28.8891 203.799 29.4891 203.799H31.6611V204.435H29.5131C28.9051 204.435 28.4811 204.543 28.2411 204.759C28.0091 204.975 27.8931 205.243 27.8931 205.563C27.8931 205.923 28.0331 206.211 28.3131 206.427C28.5931 206.643 28.9851 206.751 29.4891 206.751C29.9691 206.751 30.3811 206.643 30.7251 206.427C31.0771 206.203 31.3331 205.883 31.4931 205.467L31.6851 206.055C31.5251 206.471 31.2451 206.803 30.8451 207.051C30.4531 207.299 29.9571 207.423 29.3571 207.423ZM34.6592 207.363V198.459H35.5112V207.363H34.6592ZM37.8818 207.363V198.459H38.7338V207.363H37.8818ZM41.1045 207.363V201.063H41.9565V207.363H41.1045ZM41.5365 199.671C41.3605 199.671 41.2125 199.611 41.0925 199.491C40.9725 199.371 40.9125 199.227 40.9125 199.059C40.9125 198.891 40.9725 198.751 41.0925 198.639C41.2125 198.519 41.3605 198.459 41.5365 198.459C41.7125 198.459 41.8605 198.515 41.9805 198.627C42.1005 198.739 42.1605 198.879 42.1605 199.047C42.1605 199.223 42.1005 199.371 41.9805 199.491C41.8685 199.611 41.7205 199.671 41.5365 199.671ZM48.2752 207.363V205.971L48.2392 205.743V203.415C48.2392 202.879 48.0872 202.467 47.7832 202.179C47.4872 201.891 47.0432 201.747 46.4512 201.747C46.0432 201.747 45.6552 201.815 45.2872 201.951C44.9192 202.087 44.6072 202.267 44.3512 202.491L43.9672 201.855C44.2872 201.583 44.6712 201.375 45.1192 201.231C45.5672 201.079 46.0392 201.003 46.5352 201.003C47.3512 201.003 47.9792 201.207 48.4192 201.615C48.8672 202.015 49.0912 202.627 49.0912 203.451V207.363H48.2752ZM46.1032 207.423C45.6312 207.423 45.2192 207.347 44.8672 207.195C44.5232 207.035 44.2592 206.819 44.0752 206.547C43.8912 206.267 43.7992 205.947 43.7992 205.587C43.7992 205.259 43.8752 204.963 44.0272 204.699C44.1872 204.427 44.4432 204.211 44.7952 204.051C45.1552 203.883 45.6352 203.799 46.2352 203.799H48.4072V204.435H46.2592C45.6512 204.435 45.2272 204.543 44.9872 204.759C44.7552 204.975 44.6392 205.243 44.6392 205.563C44.6392 205.923 44.7792 206.211 45.0592 206.427C45.3392 206.643 45.7312 206.751 46.2352 206.751C46.7152 206.751 47.1272 206.643 47.4712 206.427C47.8232 206.203 48.0792 205.883 48.2392 205.467L48.4312 206.055C48.2712 206.471 47.9912 206.803 47.5912 207.051C47.1992 207.299 46.7032 207.423 46.1032 207.423ZM54.6213 201.003C55.1333 201.003 55.5813 201.103 55.9653 201.303C56.3573 201.495 56.6613 201.791 56.8773 202.191C57.1013 202.591 57.2133 203.095 57.2133 203.703V207.363H56.3613V203.787C56.3613 203.123 56.1933 202.623 55.8573 202.287C55.5293 201.943 55.0653 201.771 54.4653 201.771C54.0173 201.771 53.6253 201.863 53.2893 202.047C52.9613 202.223 52.7053 202.483 52.5213 202.827C52.3453 203.163 52.2573 203.571 52.2573 204.051V207.363H51.4053V201.063H52.2213V202.791L52.0893 202.467C52.2893 202.011 52.6093 201.655 53.0493 201.399C53.4893 201.135 54.0133 201.003 54.6213 201.003ZM62.0827 207.423C61.4747 207.423 60.9267 207.287 60.4387 207.015C59.9587 206.735 59.5787 206.355 59.2987 205.875C59.0187 205.387 58.8787 204.831 58.8787 204.207C58.8787 203.575 59.0187 203.019 59.2987 202.539C59.5787 202.059 59.9587 201.683 60.4387 201.411C60.9187 201.139 61.4667 201.003 62.0827 201.003C62.7067 201.003 63.2587 201.139 63.7387 201.411C64.2267 201.683 64.6067 202.059 64.8787 202.539C65.1587 203.019 65.2987 203.575 65.2987 204.207C65.2987 204.831 65.1587 205.387 64.8787 205.875C64.6067 206.355 64.2267 206.735 63.7387 207.015C63.2507 207.287 62.6987 207.423 62.0827 207.423ZM62.0827 206.667C62.5387 206.667 62.9427 206.567 63.2947 206.367C63.6467 206.159 63.9227 205.871 64.1227 205.503C64.3307 205.127 64.4347 204.695 64.4347 204.207C64.4347 203.711 64.3307 203.279 64.1227 202.911C63.9227 202.543 63.6467 202.259 63.2947 202.059C62.9427 201.851 62.5427 201.747 62.0947 201.747C61.6467 201.747 61.2467 201.851 60.8947 202.059C60.5427 202.259 60.2627 202.543 60.0547 202.911C59.8467 203.279 59.7427 203.711 59.7427 204.207C59.7427 204.695 59.8467 205.127 60.0547 205.503C60.2627 205.871 60.5427 206.159 60.8947 206.367C61.2467 206.567 61.6427 206.667 62.0827 206.667Z" fill="#232735"/>
<path d="M22.0078 230.363L23.0398 221.963H23.6878L22.6558 230.363H22.0078ZM17.4598 228.083V227.423H24.7198V228.083H17.4598ZM18.8878 230.363L19.9198 221.963H20.5798L19.5358 230.363H18.8878ZM17.8438 224.903V224.243H25.1038V224.903H17.8438ZM26.8353 230.363V221.963H30.2553C31.1513 221.963 31.9353 222.143 32.6073 222.503C33.2873 222.855 33.8153 223.347 34.1913 223.979C34.5673 224.611 34.7553 225.339 34.7553 226.163C34.7553 226.987 34.5673 227.715 34.1913 228.347C33.8153 228.979 33.2873 229.475 32.6073 229.835C31.9353 230.187 31.1513 230.363 30.2553 230.363H26.8353ZM27.7233 229.595H30.2073C30.9513 229.595 31.5953 229.451 32.1393 229.163C32.6913 228.867 33.1193 228.463 33.4233 227.951C33.7273 227.431 33.8793 226.835 33.8793 226.163C33.8793 225.483 33.7273 224.887 33.4233 224.375C33.1193 223.863 32.6913 223.463 32.1393 223.175C31.5953 222.879 30.9513 222.731 30.2073 222.731H27.7233V229.595ZM35.2882 230.363L39.1282 221.963H40.0042L43.8442 230.363H42.9082L39.3802 222.479H39.7402L36.2122 230.363H35.2882ZM36.8002 228.119L37.0642 227.399H41.9482L42.2122 228.119H36.8002ZM45.2337 230.363V221.963H48.8577C49.7937 221.963 50.5177 222.151 51.0297 222.527C51.5497 222.903 51.8097 223.435 51.8097 224.123C51.8097 224.579 51.7017 224.963 51.4857 225.275C51.2777 225.587 50.9897 225.823 50.6217 225.983C50.2617 226.143 49.8657 226.223 49.4337 226.223L49.6377 225.935C50.1737 225.935 50.6337 226.019 51.0177 226.187C51.4097 226.347 51.7137 226.591 51.9297 226.919C52.1457 227.239 52.2537 227.639 52.2537 228.119C52.2537 228.831 51.9897 229.383 51.4617 229.775C50.9417 230.167 50.1537 230.363 49.0977 230.363H45.2337ZM46.1217 229.631H49.0857C49.8217 229.631 50.3857 229.507 50.7777 229.259C51.1697 229.003 51.3657 228.599 51.3657 228.047C51.3657 227.503 51.1697 227.107 50.7777 226.859C50.3857 226.603 49.8217 226.475 49.0857 226.475H46.0257V225.743H48.7977C49.4697 225.743 49.9897 225.615 50.3577 225.359C50.7337 225.103 50.9217 224.723 50.9217 224.219C50.9217 223.707 50.7337 223.327 50.3577 223.079C49.9897 222.823 49.4697 222.695 48.7977 222.695H46.1217V229.631ZM55.0006 230.363V222.323L55.3846 222.731H53.0206V221.963H55.8646V230.363H55.0006ZM61.2205 230.435C60.5725 230.435 59.9965 230.267 59.4925 229.931C58.9885 229.587 58.5925 229.099 58.3045 228.467C58.0165 227.827 57.8725 227.059 57.8725 226.163C57.8725 225.267 58.0165 224.503 58.3045 223.871C58.5925 223.231 58.9885 222.743 59.4925 222.407C59.9965 222.063 60.5725 221.891 61.2205 221.891C61.8685 221.891 62.4445 222.063 62.9485 222.407C63.4525 222.743 63.8485 223.231 64.1365 223.871C64.4325 224.503 64.5805 225.267 64.5805 226.163C64.5805 227.059 64.4325 227.827 64.1365 228.467C63.8485 229.099 63.4525 229.587 62.9485 229.931C62.4445 230.267 61.8685 230.435 61.2205 230.435ZM61.2205 229.643C61.7165 229.643 62.1485 229.511 62.5165 229.247C62.8845 228.975 63.1725 228.583 63.3805 228.071C63.5885 227.551 63.6925 226.915 63.6925 226.163C63.6925 225.411 63.5885 224.779 63.3805 224.267C63.1725 223.747 62.8845 223.355 62.5165 223.091C62.1485 222.819 61.7165 222.683 61.2205 222.683C60.7405 222.683 60.3125 222.819 59.9365 223.091C59.5605 223.355 59.2685 223.747 59.0605 224.267C58.8525 224.779 58.7485 225.411 58.7485 226.163C58.7485 226.915 58.8525 227.551 59.0605 228.071C59.2685 228.583 59.5605 228.975 59.9365 229.247C60.3125 229.511 60.7405 229.643 61.2205 229.643ZM69.2618 230.435C68.5178 230.435 67.8898 230.271 67.3778 229.943C66.8658 229.607 66.4778 229.127 66.2138 228.503C65.9498 227.871 65.8178 227.115 65.8178 226.235C65.8178 225.283 65.9778 224.487 66.2978 223.847C66.6258 223.199 67.0778 222.711 67.6538 222.383C68.2298 222.055 68.8978 221.891 69.6578 221.891C70.0338 221.891 70.3938 221.927 70.7378 221.999C71.0818 222.071 71.3858 222.187 71.6498 222.347L71.3018 223.043C71.0858 222.899 70.8378 222.799 70.5578 222.743C70.2778 222.679 69.9818 222.647 69.6698 222.647C68.7658 222.647 68.0418 222.935 67.4978 223.511C66.9618 224.087 66.6938 224.947 66.6938 226.091C66.6938 226.267 66.7018 226.487 66.7178 226.751C66.7418 227.007 66.7898 227.263 66.8618 227.519L66.5618 227.291C66.6498 226.875 66.8218 226.523 67.0778 226.235C67.3338 225.939 67.6538 225.715 68.0378 225.563C68.4218 225.411 68.8418 225.335 69.2978 225.335C69.8578 225.335 70.3498 225.439 70.7738 225.647C71.1978 225.855 71.5298 226.147 71.7698 226.523C72.0098 226.899 72.1298 227.343 72.1298 227.855C72.1298 228.375 72.0058 228.831 71.7578 229.223C71.5098 229.607 71.1658 229.907 70.7258 230.123C70.2938 230.331 69.8058 230.435 69.2618 230.435ZM69.2258 229.703C69.6258 229.703 69.9778 229.631 70.2818 229.487C70.5938 229.335 70.8378 229.123 71.0138 228.851C71.1898 228.571 71.2778 228.247 71.2778 227.879C71.2778 227.327 71.0858 226.887 70.7018 226.559C70.3258 226.231 69.8138 226.067 69.1658 226.067C68.7338 226.067 68.3578 226.147 68.0378 226.307C67.7178 226.467 67.4658 226.687 67.2818 226.967C67.0978 227.239 67.0058 227.551 67.0058 227.903C67.0058 228.207 67.0898 228.499 67.2578 228.779C67.4258 229.051 67.6738 229.275 68.0018 229.451C68.3378 229.619 68.7458 229.703 69.2258 229.703Z" fill="#505565"/>
<path d="M8 133.858C8 131.649 9.79086 129.858 12 129.858H95.1186C97.3278 129.858 99.1186 131.649 99.1186 133.858V186.807H8V133.858Z" fill="#DAB106"/>
<g filter="url(#filter2_d_3_303)">
<path d="M116.773 133.858C116.773 131.649 118.564 129.858 120.773 129.858H203.892C206.101 129.858 207.892 131.649 207.892 133.858V232.922C207.892 235.131 206.101 236.922 203.892 236.922H120.773C118.564 236.922 116.773 235.131 116.773 232.922V133.858Z" fill="white"/>
</g>
<path d="M130.901 207.435C130.269 207.435 129.685 207.331 129.149 207.123C128.613 206.907 128.149 206.607 127.757 206.223C127.365 205.839 127.057 205.387 126.833 204.867C126.617 204.347 126.509 203.779 126.509 203.163C126.509 202.547 126.617 201.979 126.833 201.459C127.057 200.939 127.365 200.487 127.757 200.103C128.157 199.719 128.625 199.423 129.161 199.215C129.697 198.999 130.281 198.891 130.913 198.891C131.521 198.891 132.093 198.995 132.629 199.203C133.165 199.403 133.617 199.707 133.985 200.115L133.421 200.679C133.077 200.327 132.697 200.075 132.281 199.923C131.865 199.763 131.417 199.683 130.937 199.683C130.433 199.683 129.965 199.771 129.533 199.947C129.101 200.115 128.725 200.359 128.405 200.679C128.085 200.991 127.833 201.359 127.649 201.783C127.473 202.199 127.385 202.659 127.385 203.163C127.385 203.667 127.473 204.131 127.649 204.555C127.833 204.971 128.085 205.339 128.405 205.659C128.725 205.971 129.101 206.215 129.533 206.391C129.965 206.559 130.433 206.643 130.937 206.643C131.417 206.643 131.865 206.563 132.281 206.403C132.697 206.243 133.077 205.987 133.421 205.635L133.985 206.199C133.617 206.607 133.165 206.915 132.629 207.123C132.093 207.331 131.517 207.435 130.901 207.435ZM138.093 207.423C137.437 207.423 136.861 207.287 136.365 207.015C135.869 206.735 135.481 206.355 135.201 205.875C134.921 205.387 134.781 204.831 134.781 204.207C134.781 203.583 134.913 203.031 135.177 202.551C135.449 202.071 135.817 201.695 136.281 201.423C136.753 201.143 137.281 201.003 137.865 201.003C138.457 201.003 138.981 201.139 139.437 201.411C139.901 201.675 140.265 202.051 140.529 202.539C140.793 203.019 140.925 203.575 140.925 204.207C140.925 204.247 140.921 204.291 140.913 204.339C140.913 204.379 140.913 204.423 140.913 204.471H135.429V203.835H140.457L140.121 204.087C140.121 203.631 140.021 203.227 139.821 202.875C139.629 202.515 139.365 202.235 139.029 202.035C138.693 201.835 138.305 201.735 137.865 201.735C137.433 201.735 137.045 201.835 136.701 202.035C136.357 202.235 136.089 202.515 135.897 202.875C135.705 203.235 135.609 203.647 135.609 204.111V204.243C135.609 204.723 135.713 205.147 135.921 205.515C136.137 205.875 136.433 206.159 136.809 206.367C137.193 206.567 137.629 206.667 138.117 206.667C138.501 206.667 138.857 206.599 139.185 206.463C139.521 206.327 139.809 206.119 140.049 205.839L140.529 206.391C140.249 206.727 139.897 206.983 139.473 207.159C139.057 207.335 138.597 207.423 138.093 207.423ZM142.659 207.363V198.459H143.511V207.363H142.659ZM148.557 207.423C147.901 207.423 147.325 207.287 146.829 207.015C146.333 206.735 145.945 206.355 145.665 205.875C145.385 205.387 145.245 204.831 145.245 204.207C145.245 203.583 145.377 203.031 145.641 202.551C145.913 202.071 146.281 201.695 146.745 201.423C147.217 201.143 147.745 201.003 148.329 201.003C148.921 201.003 149.445 201.139 149.901 201.411C150.365 201.675 150.729 202.051 150.993 202.539C151.257 203.019 151.389 203.575 151.389 204.207C151.389 204.247 151.385 204.291 151.377 204.339C151.377 204.379 151.377 204.423 151.377 204.471H145.893V203.835H150.921L150.585 204.087C150.585 203.631 150.485 203.227 150.285 202.875C150.093 202.515 149.829 202.235 149.493 202.035C149.157 201.835 148.769 201.735 148.329 201.735C147.897 201.735 147.509 201.835 147.165 202.035C146.821 202.235 146.553 202.515 146.361 202.875C146.169 203.235 146.073 203.647 146.073 204.111V204.243C146.073 204.723 146.177 205.147 146.385 205.515C146.601 205.875 146.897 206.159 147.273 206.367C147.657 206.567 148.093 206.667 148.581 206.667C148.965 206.667 149.321 206.599 149.649 206.463C149.985 206.327 150.273 206.119 150.513 205.839L150.993 206.391C150.713 206.727 150.361 206.983 149.937 207.159C149.521 207.335 149.061 207.423 148.557 207.423ZM154.816 207.423C154.296 207.423 153.804 207.351 153.34 207.207C152.876 207.055 152.512 206.867 152.248 206.643L152.632 205.971C152.888 206.163 153.216 206.331 153.616 206.475C154.016 206.611 154.436 206.679 154.876 206.679C155.476 206.679 155.908 206.587 156.172 206.403C156.436 206.211 156.568 205.959 156.568 205.647C156.568 205.415 156.492 205.235 156.34 205.107C156.196 204.971 156.004 204.871 155.764 204.807C155.524 204.735 155.256 204.675 154.96 204.627C154.664 204.579 154.368 204.523 154.072 204.459C153.784 204.395 153.52 204.303 153.28 204.183C153.04 204.055 152.844 203.883 152.692 203.667C152.548 203.451 152.476 203.163 152.476 202.803C152.476 202.459 152.572 202.151 152.764 201.879C152.956 201.607 153.236 201.395 153.604 201.243C153.98 201.083 154.436 201.003 154.972 201.003C155.38 201.003 155.788 201.059 156.196 201.171C156.604 201.275 156.94 201.415 157.204 201.591L156.832 202.275C156.552 202.083 156.252 201.947 155.932 201.867C155.612 201.779 155.292 201.735 154.972 201.735C154.404 201.735 153.984 201.835 153.712 202.035C153.448 202.227 153.316 202.475 153.316 202.779C153.316 203.019 153.388 203.207 153.532 203.343C153.684 203.479 153.88 203.587 154.12 203.667C154.368 203.739 154.636 203.799 154.924 203.847C155.22 203.895 155.512 203.955 155.8 204.027C156.096 204.091 156.364 204.183 156.604 204.303C156.852 204.415 157.048 204.579 157.192 204.795C157.344 205.003 157.42 205.279 157.42 205.623C157.42 205.991 157.316 206.311 157.108 206.583C156.908 206.847 156.612 207.055 156.22 207.207C155.836 207.351 155.368 207.423 154.816 207.423ZM160.975 207.423C160.383 207.423 159.927 207.263 159.607 206.943C159.287 206.623 159.127 206.171 159.127 205.587V199.671H159.979V205.539C159.979 205.907 160.071 206.191 160.255 206.391C160.447 206.591 160.719 206.691 161.071 206.691C161.447 206.691 161.759 206.583 162.007 206.367L162.307 206.979C162.139 207.131 161.935 207.243 161.695 207.315C161.463 207.387 161.223 207.423 160.975 207.423ZM157.999 201.771V201.063H161.899V201.771H157.999ZM166.311 207.423C165.655 207.423 165.079 207.287 164.583 207.015C164.087 206.735 163.699 206.355 163.419 205.875C163.139 205.387 162.999 204.831 162.999 204.207C162.999 203.583 163.131 203.031 163.395 202.551C163.667 202.071 164.035 201.695 164.499 201.423C164.971 201.143 165.499 201.003 166.083 201.003C166.675 201.003 167.199 201.139 167.655 201.411C168.119 201.675 168.483 202.051 168.747 202.539C169.011 203.019 169.143 203.575 169.143 204.207C169.143 204.247 169.139 204.291 169.131 204.339C169.131 204.379 169.131 204.423 169.131 204.471H163.647V203.835H168.675L168.339 204.087C168.339 203.631 168.239 203.227 168.039 202.875C167.847 202.515 167.583 202.235 167.247 202.035C166.911 201.835 166.523 201.735 166.083 201.735C165.651 201.735 165.263 201.835 164.919 202.035C164.575 202.235 164.307 202.515 164.115 202.875C163.923 203.235 163.827 203.647 163.827 204.111V204.243C163.827 204.723 163.931 205.147 164.139 205.515C164.355 205.875 164.651 206.159 165.027 206.367C165.411 206.567 165.847 206.667 166.335 206.667C166.719 206.667 167.075 206.599 167.403 206.463C167.739 206.327 168.027 206.119 168.267 205.839L168.747 206.391C168.467 206.727 168.115 206.983 167.691 207.159C167.275 207.335 166.815 207.423 166.311 207.423Z" fill="#232735"/>
<path d="M130.781 230.363L131.813 221.963H132.461L131.429 230.363H130.781ZM126.233 228.083V227.423H133.493V228.083H126.233ZM127.661 230.363L128.693 221.963H129.353L128.309 230.363H127.661ZM126.617 224.903V224.243H133.877V224.903H126.617ZM135.608 230.363V221.963H139.028C139.924 221.963 140.708 222.143 141.38 222.503C142.06 222.855 142.588 223.347 142.964 223.979C143.34 224.611 143.528 225.339 143.528 226.163C143.528 226.987 143.34 227.715 142.964 228.347C142.588 228.979 142.06 229.475 141.38 229.835C140.708 230.187 139.924 230.363 139.028 230.363H135.608ZM136.496 229.595H138.98C139.724 229.595 140.368 229.451 140.912 229.163C141.464 228.867 141.892 228.463 142.196 227.951C142.5 227.431 142.652 226.835 142.652 226.163C142.652 225.483 142.5 224.887 142.196 224.375C141.892 223.863 141.464 223.463 140.912 223.175C140.368 222.879 139.724 222.731 138.98 222.731H136.496V229.595ZM148.126 230.435C147.478 230.435 146.902 230.267 146.398 229.931C145.894 229.587 145.498 229.099 145.21 228.467C144.922 227.827 144.778 227.059 144.778 226.163C144.778 225.267 144.922 224.503 145.21 223.871C145.498 223.231 145.894 222.743 146.398 222.407C146.902 222.063 147.478 221.891 148.126 221.891C148.774 221.891 149.35 222.063 149.854 222.407C150.358 222.743 150.754 223.231 151.042 223.871C151.338 224.503 151.486 225.267 151.486 226.163C151.486 227.059 151.338 227.827 151.042 228.467C150.754 229.099 150.358 229.587 149.854 229.931C149.35 230.267 148.774 230.435 148.126 230.435ZM148.126 229.643C148.622 229.643 149.054 229.511 149.422 229.247C149.79 228.975 150.078 228.583 150.286 228.071C150.494 227.551 150.598 226.915 150.598 226.163C150.598 225.411 150.494 224.779 150.286 224.267C150.078 223.747 149.79 223.355 149.422 223.091C149.054 222.819 148.622 222.683 148.126 222.683C147.646 222.683 147.218 222.819 146.842 223.091C146.466 223.355 146.174 223.747 145.966 224.267C145.758 224.779 145.654 225.411 145.654 226.163C145.654 226.915 145.758 227.551 145.966 228.071C146.174 228.583 146.466 228.975 146.842 229.247C147.218 229.511 147.646 229.643 148.126 229.643ZM153.468 230.363V221.963H156.888C157.784 221.963 158.568 222.143 159.24 222.503C159.92 222.855 160.448 223.347 160.824 223.979C161.2 224.611 161.388 225.339 161.388 226.163C161.388 226.987 161.2 227.715 160.824 228.347C160.448 228.979 159.92 229.475 159.24 229.835C158.568 230.187 157.784 230.363 156.888 230.363H153.468ZM154.356 229.595H156.84C157.584 229.595 158.228 229.451 158.772 229.163C159.324 228.867 159.752 228.463 160.056 227.951C160.36 227.431 160.512 226.835 160.512 226.163C160.512 225.483 160.36 224.887 160.056 224.375C159.752 223.863 159.324 223.463 158.772 223.175C158.228 222.879 157.584 222.731 156.84 222.731H154.356V229.595ZM163.984 230.363V222.323L164.368 222.731H162.004V221.963H164.848V230.363H163.984ZM171.248 230.435C170.616 230.435 170.032 230.331 169.496 230.123C168.96 229.907 168.496 229.607 168.104 229.223C167.712 228.839 167.404 228.387 167.18 227.867C166.964 227.347 166.856 226.779 166.856 226.163C166.856 225.547 166.964 224.979 167.18 224.459C167.404 223.939 167.712 223.487 168.104 223.103C168.504 222.719 168.972 222.423 169.508 222.215C170.044 221.999 170.628 221.891 171.26 221.891C171.868 221.891 172.44 221.995 172.976 222.203C173.512 222.403 173.964 222.707 174.332 223.115L173.768 223.679C173.424 223.327 173.044 223.075 172.628 222.923C172.212 222.763 171.764 222.683 171.284 222.683C170.78 222.683 170.312 222.771 169.88 222.947C169.448 223.115 169.072 223.359 168.752 223.679C168.432 223.991 168.18 224.359 167.996 224.783C167.82 225.199 167.732 225.659 167.732 226.163C167.732 226.667 167.82 227.131 167.996 227.555C168.18 227.971 168.432 228.339 168.752 228.659C169.072 228.971 169.448 229.215 169.88 229.391C170.312 229.559 170.78 229.643 171.284 229.643C171.764 229.643 172.212 229.563 172.628 229.403C173.044 229.243 173.424 228.987 173.768 228.635L174.332 229.199C173.964 229.607 173.512 229.915 172.976 230.123C172.44 230.331 171.864 230.435 171.248 230.435ZM177.017 225.719H181.457V226.475H177.017V225.719ZM177.113 229.595H182.165V230.363H176.225V221.963H181.985V222.731H177.113V229.595Z" fill="#505565"/>
<path d="M116.773 133.858C116.773 131.649 118.564 129.858 120.773 129.858H203.892C206.101 129.858 207.892 131.649 207.892 133.858V186.807H116.773V133.858Z" fill="#D0D1CE"/>
<g filter="url(#filter3_d_3_303)">
<path d="M116.773 8C116.773 5.79086 118.564 4 120.773 4H203.892C206.101 4 207.892 5.79086 207.892 8V107.064C207.892 109.274 206.101 111.064 203.892 111.064H120.773C118.564 111.064 116.773 109.274 116.773 107.064V8Z" fill="white"/>
</g>
<path d="M128.885 81.5051V73.8731H125.933V73.1051H132.725V73.8731H129.773V81.5051H128.885ZM137.56 81.5051V80.1131L137.524 79.8851V77.5571C137.524 77.0211 137.372 76.6091 137.068 76.3211C136.772 76.0331 136.328 75.8891 135.736 75.8891C135.328 75.8891 134.94 75.9571 134.572 76.0931C134.204 76.2291 133.892 76.4091 133.636 76.6331L133.252 75.9971C133.572 75.7251 133.956 75.5171 134.404 75.3731C134.852 75.2211 135.324 75.1451 135.82 75.1451C136.636 75.1451 137.264 75.3491 137.704 75.7571C138.152 76.1571 138.376 76.7691 138.376 77.5931V81.5051H137.56ZM135.388 81.5651C134.916 81.5651 134.504 81.4891 134.152 81.3371C133.808 81.1771 133.544 80.9611 133.36 80.6891C133.176 80.4091 133.084 80.0891 133.084 79.7291C133.084 79.4011 133.16 79.1051 133.312 78.8411C133.472 78.5691 133.728 78.3531 134.08 78.1931C134.44 78.0251 134.92 77.9411 135.52 77.9411H137.692V78.5771H135.544C134.936 78.5771 134.512 78.6851 134.272 78.9011C134.04 79.1171 133.924 79.3851 133.924 79.7051C133.924 80.0651 134.064 80.3531 134.344 80.5691C134.624 80.7851 135.016 80.8931 135.52 80.8931C136 80.8931 136.412 80.7851 136.756 80.5691C137.108 80.3451 137.364 80.0251 137.524 79.6091L137.716 80.1971C137.556 80.6131 137.276 80.9451 136.876 81.1931C136.484 81.4411 135.988 81.5651 135.388 81.5651ZM148.562 75.1451C149.074 75.1451 149.518 75.2451 149.894 75.4451C150.278 75.6371 150.574 75.9331 150.782 76.3331C150.998 76.7331 151.106 77.2371 151.106 77.8451V81.5051H150.254V77.9291C150.254 77.2651 150.094 76.7651 149.774 76.4291C149.462 76.0851 149.018 75.9131 148.442 75.9131C148.01 75.9131 147.634 76.0051 147.314 76.1891C147.002 76.3651 146.758 76.6251 146.582 76.9691C146.414 77.3051 146.33 77.7131 146.33 78.1931V81.5051H145.478V77.9291C145.478 77.2651 145.318 76.7651 144.998 76.4291C144.678 76.0851 144.23 75.9131 143.654 75.9131C143.23 75.9131 142.858 76.0051 142.538 76.1891C142.218 76.3651 141.97 76.6251 141.794 76.9691C141.626 77.3051 141.542 77.7131 141.542 78.1931V81.5051H140.69V75.2051H141.506V76.9091L141.374 76.6091C141.566 76.1531 141.874 75.7971 142.298 75.5411C142.73 75.2771 143.238 75.1451 143.822 75.1451C144.438 75.1451 144.962 75.3011 145.394 75.6131C145.826 75.9171 146.106 76.3771 146.234 76.9931L145.898 76.8611C146.082 76.3491 146.406 75.9371 146.87 75.6251C147.342 75.3051 147.906 75.1451 148.562 75.1451ZM157.365 81.5051V80.1131L157.329 79.8851V77.5571C157.329 77.0211 157.177 76.6091 156.873 76.3211C156.577 76.0331 156.133 75.8891 155.541 75.8891C155.133 75.8891 154.745 75.9571 154.377 76.0931C154.009 76.2291 153.697 76.4091 153.441 76.6331L153.057 75.9971C153.377 75.7251 153.761 75.5171 154.209 75.3731C154.657 75.2211 155.129 75.1451 155.625 75.1451C156.441 75.1451 157.069 75.3491 157.509 75.7571C157.957 76.1571 158.181 76.7691 158.181 77.5931V81.5051H157.365ZM155.193 81.5651C154.721 81.5651 154.309 81.4891 153.957 81.3371C153.613 81.1771 153.349 80.9611 153.165 80.6891C152.981 80.4091 152.889 80.0891 152.889 79.7291C152.889 79.4011 152.965 79.1051 153.117 78.8411C153.277 78.5691 153.533 78.3531 153.885 78.1931C154.245 78.0251 154.725 77.9411 155.325 77.9411H157.497V78.5771H155.349C154.741 78.5771 154.317 78.6851 154.077 78.9011C153.845 79.1171 153.729 79.3851 153.729 79.7051C153.729 80.0651 153.869 80.3531 154.149 80.5691C154.429 80.7851 154.821 80.8931 155.325 80.8931C155.805 80.8931 156.217 80.7851 156.561 80.5691C156.913 80.3451 157.169 80.0251 157.329 79.6091L157.521 80.1971C157.361 80.6131 157.081 80.9451 156.681 81.1931C156.289 81.4411 155.793 81.5651 155.193 81.5651ZM160.495 81.5051V75.2051H161.311V76.9211L161.227 76.6211C161.403 76.1411 161.699 75.7771 162.115 75.5291C162.531 75.2731 163.047 75.1451 163.663 75.1451V75.9731C163.631 75.9731 163.599 75.9731 163.567 75.9731C163.535 75.9651 163.503 75.9611 163.471 75.9611C162.807 75.9611 162.287 76.1651 161.911 76.5731C161.535 76.9731 161.347 77.5451 161.347 78.2891V81.5051H160.495ZM165.217 81.5051V75.2051H166.069V81.5051H165.217ZM165.649 73.8131C165.473 73.8131 165.325 73.7531 165.205 73.6331C165.085 73.5131 165.025 73.3691 165.025 73.2011C165.025 73.0331 165.085 72.8931 165.205 72.7811C165.325 72.6611 165.473 72.6011 165.649 72.6011C165.825 72.6011 165.973 72.6571 166.093 72.7691C166.213 72.8811 166.273 73.0211 166.273 73.1891C166.273 73.3651 166.213 73.5131 166.093 73.6331C165.981 73.7531 165.833 73.8131 165.649 73.8131ZM168.44 81.5051V72.6011H169.292V81.5051H168.44ZM171.663 81.5051V72.6011H172.515V81.5051H171.663ZM177.453 81.5651C176.845 81.5651 176.297 81.4291 175.809 81.1571C175.329 80.8771 174.949 80.4971 174.669 80.0171C174.389 79.5291 174.249 78.9731 174.249 78.3491C174.249 77.7171 174.389 77.1611 174.669 76.6811C174.949 76.2011 175.329 75.8251 175.809 75.5531C176.289 75.2811 176.837 75.1451 177.453 75.1451C178.077 75.1451 178.629 75.2811 179.109 75.5531C179.597 75.8251 179.977 76.2011 180.249 76.6811C180.529 77.1611 180.669 77.7171 180.669 78.3491C180.669 78.9731 180.529 79.5291 180.249 80.0171C179.977 80.4971 179.597 80.8771 179.109 81.1571C178.621 81.4291 178.069 81.5651 177.453 81.5651ZM177.453 80.8091C177.909 80.8091 178.313 80.7091 178.665 80.5091C179.017 80.3011 179.293 80.0131 179.493 79.6451C179.701 79.2691 179.805 78.8371 179.805 78.3491C179.805 77.8531 179.701 77.4211 179.493 77.0531C179.293 76.6851 179.017 76.4011 178.665 76.2011C178.313 75.9931 177.913 75.8891 177.465 75.8891C177.017 75.8891 176.617 75.9931 176.265 76.2011C175.913 76.4011 175.633 76.6851 175.425 77.0531C175.217 77.4211 175.113 77.8531 175.113 78.3491C175.113 78.8371 175.217 79.2691 175.425 79.6451C175.633 80.0131 175.913 80.3011 176.265 80.5091C176.617 80.7091 177.013 80.8091 177.453 80.8091Z" fill="#232735"/>
<path d="M130.781 104.505L131.813 96.1051H132.461L131.429 104.505H130.781ZM126.233 102.225V101.565H133.493V102.225H126.233ZM127.661 104.505L128.693 96.1051H129.353L128.309 104.505H127.661ZM126.617 99.0451V98.3851H133.877V99.0451H126.617ZM134.264 104.505L138.104 96.1051H138.98L142.82 104.505H141.884L138.356 96.6211H138.716L135.188 104.505H134.264ZM135.776 102.261L136.04 101.541H140.924L141.188 102.261H135.776ZM147.741 104.577C147.109 104.577 146.525 104.473 145.989 104.265C145.453 104.049 144.989 103.749 144.597 103.365C144.205 102.981 143.897 102.529 143.673 102.009C143.457 101.489 143.349 100.921 143.349 100.305C143.349 99.6891 143.457 99.1211 143.673 98.6011C143.897 98.0811 144.205 97.6291 144.597 97.2451C144.997 96.8611 145.465 96.5651 146.001 96.3571C146.537 96.1411 147.121 96.0331 147.753 96.0331C148.361 96.0331 148.933 96.1371 149.469 96.3451C150.005 96.5451 150.457 96.8491 150.825 97.2571L150.261 97.8211C149.917 97.4691 149.537 97.2171 149.121 97.0651C148.705 96.9051 148.257 96.8251 147.777 96.8251C147.273 96.8251 146.805 96.9131 146.373 97.0891C145.941 97.2571 145.565 97.5011 145.245 97.8211C144.925 98.1331 144.673 98.5011 144.489 98.9251C144.313 99.3411 144.225 99.8011 144.225 100.305C144.225 100.809 144.313 101.273 144.489 101.697C144.673 102.113 144.925 102.481 145.245 102.801C145.565 103.113 145.941 103.357 146.373 103.533C146.805 103.701 147.273 103.785 147.777 103.785C148.257 103.785 148.705 103.705 149.121 103.545C149.537 103.385 149.917 103.129 150.261 102.777L150.825 103.341C150.457 103.749 150.005 104.057 149.469 104.265C148.933 104.473 148.357 104.577 147.741 104.577ZM153.555 104.505V96.4651L153.939 96.8731H151.575V96.1051H154.419V104.505H153.555ZM159.871 104.577C159.127 104.577 158.499 104.413 157.987 104.085C157.475 103.749 157.087 103.269 156.823 102.645C156.559 102.013 156.427 101.257 156.427 100.377C156.427 99.4251 156.587 98.6291 156.907 97.9891C157.235 97.3411 157.687 96.8531 158.263 96.5251C158.839 96.1971 159.507 96.0331 160.267 96.0331C160.643 96.0331 161.003 96.0691 161.347 96.1411C161.691 96.2131 161.995 96.3291 162.259 96.4891L161.911 97.1851C161.695 97.0411 161.447 96.9411 161.167 96.8851C160.887 96.8211 160.591 96.7891 160.279 96.7891C159.375 96.7891 158.651 97.0771 158.107 97.6531C157.571 98.2291 157.303 99.0891 157.303 100.233C157.303 100.409 157.311 100.629 157.327 100.893C157.351 101.149 157.399 101.405 157.471 101.661L157.171 101.433C157.259 101.017 157.431 100.665 157.687 100.377C157.943 100.081 158.263 99.8571 158.647 99.7051C159.031 99.5531 159.451 99.4771 159.907 99.4771C160.467 99.4771 160.959 99.5811 161.383 99.7891C161.807 99.9971 162.139 100.289 162.379 100.665C162.619 101.041 162.739 101.485 162.739 101.997C162.739 102.517 162.615 102.973 162.367 103.365C162.119 103.749 161.775 104.049 161.335 104.265C160.903 104.473 160.415 104.577 159.871 104.577ZM159.835 103.845C160.235 103.845 160.587 103.773 160.891 103.629C161.203 103.477 161.447 103.265 161.623 102.993C161.799 102.713 161.887 102.389 161.887 102.021C161.887 101.469 161.695 101.029 161.311 100.701C160.935 100.373 160.423 100.209 159.775 100.209C159.343 100.209 158.967 100.289 158.647 100.449C158.327 100.609 158.075 100.829 157.891 101.109C157.707 101.381 157.615 101.693 157.615 102.045C157.615 102.349 157.699 102.641 157.867 102.921C158.035 103.193 158.283 103.417 158.611 103.593C158.947 103.761 159.355 103.845 159.835 103.845ZM165.203 104.505V96.4651L165.587 96.8731H163.223V96.1051H166.067V104.505H165.203ZM168.819 104.505V96.1051H172.239C173.135 96.1051 173.919 96.2851 174.591 96.6451C175.271 96.9971 175.799 97.4891 176.175 98.1211C176.551 98.7531 176.739 99.4811 176.739 100.305C176.739 101.129 176.551 101.857 176.175 102.489C175.799 103.121 175.271 103.617 174.591 103.977C173.919 104.329 173.135 104.505 172.239 104.505H168.819ZM169.707 103.737H172.191C172.935 103.737 173.579 103.593 174.123 103.305C174.675 103.009 175.103 102.605 175.407 102.093C175.711 101.573 175.863 100.977 175.863 100.305C175.863 99.6251 175.711 99.0291 175.407 98.5171C175.103 98.0051 174.675 97.6051 174.123 97.3171C173.579 97.0211 172.935 96.8731 172.191 96.8731H169.707V103.737Z" fill="#505565"/>
<path d="M116.773 8C116.773 5.79087 118.564 4 120.773 4H203.892C206.101 4 207.892 5.79086 207.892 8V60.9492H116.773V8Z" fill="#AC161D"/>
<defs>
<filter id="filter0_d_3_303" x="0" y="0" width="107.119" height="123.064" filterUnits="userSpaceOnUse" color-interpolation-filters="sRGB">
<feFlood flood-opacity="0" result="BackgroundImageFix"/>
<feColorMatrix in="SourceAlpha" type="matrix" values="0 0 0 0 0 0 0 0 0 0 0 0 0 0 0 0 0 0 127 0" result="hardAlpha"/>
<feOffset dy="4"/>
<feGaussianBlur stdDeviation="4"/>
<feColorMatrix type="matrix" values="0 0 0 0 0 0 0 0 0 0 0 0 0 0 0 0 0 0 0.1 0"/>
<feBlend mode="multiply" in2="BackgroundImageFix" result="effect1_dropShadow_3_303"/>
<feBlend mode="normal" in="SourceGraphic" in2="effect1_dropShadow_3_303" result="shape"/>
</filter>
<filter id="filter1_d_3_303" x="0" y="125.858" width="107.119" height="123.064" filterUnits="userSpaceOnUse" color-interpolation-filters="sRGB">
<feFlood flood-opacity="0" result="BackgroundImageFix"/>
<feColorMatrix in="SourceAlpha" type="matrix" values="0 0 0 0 0 0 0 0 0 0 0 0 0 0 0 0 0 0 127 0" result="hardAlpha"/>
<feOffset dy="4"/>
<feGaussianBlur stdDeviation="4"/>
<feColorMatrix type="matrix" values="0 0 0 0 0 0 0 0 0 0 0 0 0 0 0 0 0 0 0.1 0"/>
<feBlend mode="multiply" in2="BackgroundImageFix" result="effect1_dropShadow_3_303"/>
<feBlend mode="normal" in="SourceGraphic" in2="effect1_dropShadow_3_303" result="shape"/>
</filter>
<filter id="filter2_d_3_303" x="108.773" y="125.858" width="107.119" height="123.064" filterUnits="userSpaceOnUse" color-interpolation-filters="sRGB">
<feFlood flood-opacity="0" result="BackgroundImageFix"/>
<feColorMatrix in="SourceAlpha" type="matrix" values="0 0 0 0 0 0 0 0 0 0 0 0 0 0 0 0 0 0 127 0" result="hardAlpha"/>
<feOffset dy="4"/>
<feGaussianBlur stdDeviation="4"/>
<feColorMatrix type="matrix" values="0 0 0 0 0 0 0 0 0 0 0 0 0 0 0 0 0 0 0.1 0"/>
<feBlend mode="multiply" in2="BackgroundImageFix" result="effect1_dropShadow_3_303"/>
<feBlend mode="normal" in="SourceGraphic" in2="effect1_dropShadow_3_303" result="shape"/>
</filter>
<filter id="filter3_d_3_303" x="108.773" y="0" width="107.119" height="123.064" filterUnits="userSpaceOnUse" color-interpolation-filters="sRGB">
<feFlood flood-opacity="0" result="BackgroundImageFix"/>
<feColorMatrix in="SourceAlpha" type="matrix" values="0 0 0 0 0 0 0 0 0 0 0 0 0 0 0 0 0 0 127 0" result="hardAlpha"/>
<feOffset dy="4"/>
<feGaussianBlur stdDeviation="4"/>
<feColorMatrix type="matrix" values="0 0 0 0 0 0 0 0 0 0 0 0 0 0 0 0 0 0 0.1 0"/>
<feBlend mode="multiply" in2="BackgroundImageFix" result="effect1_dropShadow_3_303"/>
<feBlend mode="normal" in="SourceGraphic" in2="effect1_dropShadow_3_303" result="shape"/>
</filter>
</defs>
</svg>
